<?xml version="1.0" encoding="UTF-8"?>
<svg version="1.1" viewBox="0 0 80 80" xmlns="http://www.w3.org/2000/svg">
<title>1 – Fundamentals/Logos/Clubs/Darmstadt D98</title>
<g fill="none" fill-rule="evenodd">
<rect width="80" height="80"/>
<g transform="translate(11 11)" fill-rule="nonzero">
<circle cx="29" cy="29" r="28.896" fill="#fff"/>
<path id="Shape" d="m29 58c-15.991 0-29-13.009-29-29s13.009-29 29-29 29 13.009 29 29-13.009 29-29 29zm0-57.792c-15.877 0-28.792 12.917-28.792 28.792s12.916 28.792 28.792 28.792 28.792-12.917 28.792-28.792-12.917-28.792-28.792-28.792z" fill="#004E9E"/>
<path id="Path" d="m29 10.311c-10.39 0-18.811 8.4197-18.811 18.809s8.421 18.81 18.811 18.81 18.811-8.421 18.811-18.81-8.4229-18.809-18.811-18.809z" fill="#004E9E"/>
<path id="Shape" d="m29 56.711c-15.213 0-27.59-12.378-27.59-27.591s12.377-27.59 27.59-27.59 27.59 12.373 27.59 27.59c0 15.217-12.377 27.591-27.59 27.591zm0-54.144c-14.642 0-26.551 11.912-26.551 26.551s11.912 26.551 26.551 26.551 26.551-11.912 26.551-26.551-11.909-26.552-26.551-26.552v0.0012889z" fill="#004E9E"/>
<path id="Shape" d="m8.2218 37.05-1.0627 0.30869c-1.0266 0.29838-1.8515-0.16562-2.1911-1.3398l-0.42018-1.4461c-0.054133-0.1856-0.012244-0.27131 0.1798-0.32738l3.8808-1.1271c0.19333-0.056067 0.27324-0.0058 0.32738 0.17916l0.41953 1.4468c0.34027 1.1742-0.10762 2.0081-1.1336 2.3058zm0.21653-2.0461-0.19978-0.68633-2.552 0.73982 0.19913 0.68633c0.15789 0.54391 0.49364 0.75464 0.98213 0.61287l1.0627-0.30869c0.48849-0.14113 0.66571-0.50073 0.50782-1.044z" fill="#004E9E"/>
<path id="Shape" d="m7.5104 42.011-0.21782-0.43113c-0.14436-0.28742-0.14178-0.39698 0-0.53296l0.45111-0.45111-0.71469-1.4178-0.63284 0.087644c-0.19333 0.026422-0.27904-0.025133-0.42404-0.31256l-0.19913-0.39698c-0.087-0.17271-0.032867-0.25069 0.15144-0.27067l4.3487-0.46593c0.19333-0.0232 0.25778 0.028356 0.34027 0.18947l0.22233 0.44273c0.0812 0.16111 0.084422 0.25262-0.039311 0.38022l-2.9767 3.2222c-0.1276 0.13211-0.22556 0.12373-0.30933-0.043178zm2.3606-3.344-0.029-0.058c-0.27855 0.13685-0.57622 0.23072-0.88289 0.2784l-1.0479 0.15273 0.46658 0.93316 0.74111-0.74691c0.22626-0.21723 0.47893-0.40517 0.75207-0.55938z" fill="#004E9E"/>
<path id="Shape" d="m12.611 43.744c-0.51556 0.38667-1.0414 0.44724-1.5028 0.19849-0.028745 0.082808-0.061654 0.16411-0.0986 0.2436l-0.61287 1.2928c-0.072822 0.15982-0.18624 0.21331-0.30224 0.059289l-0.31062-0.4118c-0.1972-0.26164-0.2262-0.38667-0.12502-0.58l0.5046-0.98213c0.1508-0.29129 0.14436-0.43951-0.080556-0.73724l-0.15853-0.20816-1.0846 0.81651c-0.15918 0.11987-0.25327 0.10247-0.36927-0.051556l-0.31384-0.41631c-0.11664-0.15402-0.10762-0.2494 0.051556-0.36927l3.2261-2.4341c0.15982-0.12051 0.25391-0.10247 0.36991 0.051556l1.0736 1.4229c0.56196 0.74627 0.47818 1.5434-0.2668 2.1054zm-0.55551-1.6111-0.53876-0.71404-0.84293 0.63542 0.5394 0.71276c0.20493 0.2726 0.4756 0.31062 0.74304 0.10891 0.26744-0.20171 0.30482-0.47173 0.099244-0.74433v0.0012889z" fill="#004E9E"/>
<path id="Path" d="m17.297 46.293-2.6293 3.0869c-0.12502 0.14693-0.21524 0.15402-0.36733 0.024489l-0.36733-0.31256c-0.14693-0.12567-0.15402-0.21589-0.029-0.36282l0.94669-1.1123c0.25456-0.29902 0.56969-0.58902 1.1007-0.96667l-0.043822-0.037378c-0.36698 0.23243-0.75675 0.42677-1.1632 0.58l-0.87773 0.32609c-0.14178 0.056711-0.21911 0.058644-0.34156-0.045756l-0.22556-0.19333c-0.12244-0.1044-0.14113-0.17142-0.1044-0.33447l0.17722-0.92284c0.081955-0.42352 0.22114-0.83393 0.41373-1.2199l-0.043822-0.037378c-0.30869 0.59998-0.51556 0.90222-0.79653 1.2328l-0.94282 1.111c-0.12502 0.14693-0.21589 0.15467-0.36282 0.029l-0.348-0.2958c-0.14629-0.12502-0.15918-0.2204-0.033511-0.36669l2.6287-3.0869c0.12502-0.14693 0.2204-0.15016 0.36733-0.024489l0.319 0.27131c0.16111 0.13727 0.1856 0.2088 0.15402 0.38667l-0.51556 2.4192 2.3078-0.88353c0.18173-0.064444 0.24167-0.055422 0.39376 0.073467l0.348 0.29644c0.15273 0.1276 0.16047 0.21847 0.035444 0.3654z" fill="#004E9E"/>
<path id="Path" d="m19.481 47.055c0.83004 0.44016 1.1149 0.94798 1.0814 1.644-0.0051556 0.20107-0.0928 0.25778-0.28807 0.24102l-0.53167-0.041244c-0.18431-0.010311-0.23136-0.072178-0.23587-0.27067 0.0077333-0.30224-0.11342-0.54133-0.47173-0.73144-0.46658-0.24682-0.73467-0.23587-0.87967 0.037378-0.1624 0.30676 0.1972 0.58 0.63027 0.87258 0.62382 0.43178 1.3404 1.0311 0.81007 2.0319-0.41244 0.77913-1.3327 0.96151-2.3793 0.40729-0.8874-0.47044-1.2045-1.0537-1.1097-1.7684 0.030289-0.19333 0.11536-0.24489 0.30482-0.21718l0.493 0.072178c0.19849 0.024489 0.24553 0.086356 0.22942 0.2958-0.016111 0.30482 0.16176 0.58838 0.52587 0.78171 0.48333 0.25778 0.82231 0.27582 0.99438-0.048978 0.15016-0.2842-0.15402-0.54778-0.551-0.81651-0.63864-0.43758-1.4726-1.0279-0.91833-2.0745 0.38924-0.73338 1.2328-0.97827 2.2962-0.41502z" fill="#004E9E"/>
<path id="Path" d="m24.492 49.355-0.12889 0.4118c-0.058 0.18431-0.13856 0.2262-0.32867 0.16691l-0.95829-0.30031-1.0021 3.2003c-0.059933 0.19333-0.14049 0.23264-0.33124 0.17336l-0.49751-0.15596c-0.18367-0.057356-0.2262-0.13856-0.16627-0.32867l1.0021-3.201-0.96667-0.3016c-0.19011-0.059289-0.23264-0.13984-0.17464-0.32222l0.12889-0.41116c0.059933-0.19333 0.13984-0.23264 0.3306-0.17271l2.9174 0.91318c0.19269 0.057356 0.23651 0.13791 0.17529 0.32802z" fill="#004E9E"/>
<path id="Shape" d="m27.169 54.099-0.47624-0.0754c-0.31771-0.050267-0.40536-0.11664-0.43307-0.30998l-0.10247-0.62833-1.5699-0.24876-0.29838 0.56518c-0.092156 0.174-0.18302 0.21202-0.50073 0.16176l-0.43887-0.0696c-0.19011-0.029644-0.22169-0.11987-0.12889-0.28098l2.1589-3.8022c0.091511-0.16756 0.174-0.19333 0.35187-0.16562l0.48978 0.077333c0.17722 0.028356 0.25456 0.079911 0.28549 0.25391l0.87709 4.2959c0.034156 0.18109-0.030289 0.25584-0.2146 0.22684zm-1.3353-3.8667-0.064444-0.010311c-0.050649 0.30721-0.14778 0.60492-0.28807 0.88289l-0.48784 0.93896 1.0311 0.16304-0.17593-1.0376c-0.04386-0.31051-0.048839-0.62528-0.014822-0.93702z" fill="#004E9E"/>
<path id="Shape" d="m31.491 51.187 0.028356 1.1065c0.027067 1.0685-0.6322 1.7484-1.8547 1.7793l-1.5054 0.038022c-0.19333 0.0045111-0.26551-0.057356-0.27067-0.25778l-0.10247-4.0374c-0.0051555-0.19978 0.064444-0.26551 0.25778-0.27067l1.5061-0.038022c1.2219-0.034156 1.914 0.61158 1.9411 1.6801zm-1.9243-0.7308-0.71404 0.018044 0.064444 2.6577 0.71404-0.018044c0.56647-0.014178 0.85582-0.28549 0.84293-0.79396l-0.027711-1.1072c-0.010311-0.50782-0.3132-0.77076-0.87967-0.75658z" fill="#004E9E"/>
<path id="Path" d="m35.187 48.913 0.092156 0.42147c0.041889 0.18882-0.0077333 0.26487-0.20236 0.30804l-0.98536 0.21396 0.7192 3.2757c0.043178 0.19333-0.0064444 0.27196-0.20107 0.31449l-0.50911 0.11213c-0.18882 0.041244-0.26551-0.0077333-0.30869-0.203l-0.71856-3.2757-0.98729 0.21653c-0.19333 0.042533-0.27196-0.0058-0.3132-0.19333l-0.092156-0.42147c-0.043178-0.19333 0.0058-0.27196 0.20107-0.31449l2.9864-0.6554c0.19784-0.044467 0.27453 0.0077333 0.319 0.20107z" fill="#004E9E"/>
<path id="Path" d="m38.805 47.331 1.7458 3.645c0.086356 0.18044 0.050267 0.26873-0.12373 0.35251l-0.47109 0.22749c-0.17464 0.083778-0.26616 0.056067-0.35251-0.12373l-1.3037-2.7228-0.406 0.58644c-0.12889 0.19333-0.24811 0.1972-0.40471 0.079267l-0.38087-0.26809c-0.15338-0.11213-0.14887-0.20687-0.036733-0.37507l0.75787-1.1123c0.066884-0.11471 0.16972-0.20418 0.29258-0.25456l0.3306-0.15853c0.17464-0.083133 0.2668-0.055422 0.35251 0.12438z" fill="#004E9E"/>
<path id="Shape" d="m40.42 45.904c0.90222-0.6148 1.6362-0.55873 2.0874 0.10698 0.2252 0.32492 0.27125 0.74154 0.12244 1.1078 0.435-0.047044 0.85582 0.056711 1.1884 0.54649 0.45884 0.67602 0.35316 1.4487-0.72242 2.1789-1.0756 0.73016-1.7767 0.5916-2.2104-0.047044-0.32222-0.47431-0.20107-0.96087-0.054133-1.2708-0.37442 0-0.73853-0.15982-1.0311-0.5858-0.4698-0.69729-0.22684-1.4616 0.61996-2.0364zm0.50976 0.72758c-0.33576 0.22749-0.41567 0.47624-0.24231 0.73209 0.17336 0.25584 0.42147 0.21911 0.77333 0.096667l0.26358-0.0928c0.11084-0.19333 0.17271-0.44467-0.0045111-0.70567s-0.46013-0.25456-0.79009-0.030289zm0.78751 1.7213c-0.11471 0.18624-0.22298 0.46207-0.016756 0.7656 0.17336 0.25778 0.45111 0.29451 0.90222-0.012889s0.49171-0.55938 0.31771-0.81522c-0.24618-0.36153-0.64444-0.14564-1.2032 0.062511z" fill="#004E9E"/>
<path id="Shape" d="m45.296 45.783c-0.84616 0.8294-1.5886 0.85324-2.2826 0.14564-0.65798-0.67087-0.57162-1.5467 0.22813-2.3329 0.83778-0.82038 1.7336-0.79782 2.4818-0.0348l0.93444 0.95636c0.74756 0.76302 0.7482 1.6646-0.083778 2.4798-0.65798 0.64444-1.3005 0.77333-1.9533 0.47238-0.17658-0.079267-0.19849-0.17464-0.11922-0.35187l0.21396-0.45111c0.079267-0.17658 0.16562-0.18947 0.35573-0.11471 0.27711 0.11664 0.54133 0.0464 0.82682-0.23264 0.35831-0.35187 0.3712-0.70889 0.019978-1.0653l-0.095378-0.096667c-0.15197 0.2273-0.32854 0.43716-0.52651 0.62576zm-1.392-1.5099c-0.36282 0.35573-0.40278 0.66507-0.15016 0.9222 0.25262 0.25713 0.52973 0.25778 0.92542-0.12889 0.29838-0.29258 0.42404-0.50524 0.46593-0.60062l-0.203-0.20687c-0.32931-0.34027-0.67924-0.33898-1.0382 0.014178z" fill="#004E9E"/>
<path id="Shape" d="m45.627 40.8c0.63091-0.8932 1.3346-1.0956 1.9913-0.63349 0.32477 0.22533 0.51403 0.59924 0.50331 0.99438 0.39118-0.19656 0.82102-0.24747 1.3044 0.094733 0.66764 0.47173 0.83778 1.2315 0.089578 2.2929s-1.4532 1.1761-2.0841 0.73209c-0.46722-0.3306-0.52522-0.82811-0.49622-1.1703-0.35187 0.12889-0.74756 0.1102-1.1684-0.18753-0.68827-0.48591-0.72887-1.287-0.13984-2.1228zm0.73209 0.50202c-0.23393 0.33124-0.22169 0.59224 0.030933 0.77333s0.47173 0.058 0.75851-0.18044l0.21396-0.1798c0.036089-0.21911 0.0058-0.47689-0.25133-0.65862-0.25713-0.18173-0.51749-0.080556-0.75013 0.24553h-0.0019333zm1.3424 1.3346c-0.041244 0.21524-0.0464 0.51104 0.25327 0.72307 0.25262 0.17851 0.52329 0.11793 0.83778-0.32931s0.26358-0.696 0.0116-0.87451c-0.35444-0.25262-0.65089 0.089578-1.1007 0.48076h-0.0019334z" fill="#004E9E"/>
<path id="Shape" d="m49.211 38.081c0.3654-0.81844 1.0034-0.97698 1.5705-0.72436l0.30031 0.13469c0.14822 0.064444 0.21847 0.174 0.13211 0.36604l-0.61093 1.3701 0.12309 0.054778c0.26616 0.11922 0.464 0.0064445 0.58709-0.26938 0.10376-0.232 0.090867-0.41502 0.012244-0.5568-0.078622-0.14178-0.074756-0.20429 0.064444-0.31384l0.23007-0.18431c0.12889-0.10698 0.22878-0.087644 0.32609 0.050911 0.20944 0.31191 0.22556 0.72693-0.025133 1.2889-0.37829 0.84809-0.99889 0.96667-1.6201 0.6902l-0.52264-0.23329c-0.71018-0.319-0.90802-0.90996-0.56711-1.6736zm0.5916 0.26358c-0.12889 0.28613-0.064444 0.49816 0.18367 0.60836l0.079267 0.0348 0.3944-0.87709-0.078622-0.035444c-0.2494-0.1102-0.44853-0.021267-0.57871 0.26938z" fill="#004E9E"/>
<path id="Path" d="m52.446 36.885 0.064444 0.021911c0.19333 0.064444 0.22813 0.15016 0.1624 0.34027l-0.019333 0.056711c-0.064444 0.19011-0.14629 0.22942-0.33704 0.16369l-0.064444-0.021911c-0.19333-0.064444-0.23264-0.14822-0.16756-0.33833l0.019978-0.056711c0.065733-0.18818 0.14758-0.23264 0.34156-0.16562z" fill="#004E9E"/>
<path id="Path" d="m50.069 33.16 2.9799 2.1054c0.12889 0.0928 0.14371 0.16884 0.1044 0.30933l-0.116 0.42147c-0.0406 0.14564-0.090867 0.20429-0.23909 0.21396l-3.6501 0.26938c-0.15467 0.012889-0.21073-0.047689-0.16884-0.19849l0.10827-0.38989c0.073467-0.26551 0.13533-0.32673 0.29967-0.33189l2.1093-0.0696c0.22088 2.451e-4 0.44152 0.014667 0.66056 0.043178l0.0116-0.041244c-0.20069-0.085962-0.39457-0.187-0.58-0.30224l-1.78-1.1381c-0.13791-0.088933-0.15918-0.17336-0.087-0.43371l0.10504-0.37958c0.039311-0.1508 0.11729-0.16884 0.24231-0.077978z" fill="#004E9E"/>
<path id="Path" d="m53.218 33.98 0.064444 0.014178c0.19656 0.042533 0.24424 0.12116 0.203 0.31771l-0.012889 0.058644c-0.041889 0.19333-0.11729 0.24553-0.31384 0.20364l-0.064444-0.014822c-0.20042-0.042533-0.24876-0.11793-0.20687-0.31449l0.012889-0.058644c0.041889-0.19656 0.11793-0.24876 0.31771-0.20622z" fill="#004E9E"/>
<path id="Shape" d="m8.2218 37.05-1.0627 0.30869c-1.0266 0.29838-1.8515-0.16562-2.1911-1.3398l-0.42018-1.4461c-0.054133-0.1856-0.012244-0.27131 0.1798-0.32738l3.8808-1.1271c0.19333-0.056067 0.27324-0.0058 0.32738 0.17916l0.41953 1.4468c0.34027 1.1742-0.10762 2.0081-1.1336 2.3058zm0.21653-2.0461-0.19978-0.68633-2.552 0.73982 0.19913 0.68633c0.15789 0.54391 0.49364 0.75464 0.98213 0.61287l1.0627-0.30869c0.48849-0.14113 0.66571-0.50073 0.50782-1.044z" fill="#004E9E"/>
<path id="Shape" d="m7.5104 42.011-0.21782-0.43113c-0.14436-0.28742-0.14178-0.39698 0-0.53296l0.45111-0.45111-0.71469-1.4178-0.63284 0.087644c-0.19333 0.026422-0.27904-0.025133-0.42404-0.31256l-0.19913-0.39698c-0.087-0.17271-0.032867-0.25069 0.15144-0.27067l4.3487-0.46593c0.19333-0.0232 0.25778 0.028356 0.34027 0.18947l0.22233 0.44273c0.0812 0.16111 0.084422 0.25262-0.039311 0.38022l-2.9767 3.2222c-0.1276 0.13211-0.22556 0.12373-0.30933-0.043178zm2.3606-3.344-0.029-0.058c-0.27855 0.13685-0.57622 0.23072-0.88289 0.2784l-1.0479 0.15273 0.46658 0.93316 0.74111-0.74691c0.22626-0.21723 0.47893-0.40517 0.75207-0.55938z" fill="#004E9E"/>
<path id="Shape" d="m12.611 43.744c-0.51556 0.38667-1.0414 0.44724-1.5028 0.19849-0.028745 0.082808-0.061654 0.16411-0.0986 0.2436l-0.61287 1.2928c-0.072822 0.15982-0.18624 0.21331-0.30224 0.059289l-0.31062-0.4118c-0.1972-0.26164-0.2262-0.38667-0.12502-0.58l0.5046-0.98213c0.1508-0.29129 0.14436-0.43951-0.080556-0.73724l-0.15853-0.20816-1.0846 0.81651c-0.15918 0.11987-0.25327 0.10247-0.36927-0.051556l-0.31384-0.41631c-0.11664-0.15402-0.10762-0.2494 0.051556-0.36927l3.2261-2.4341c0.15982-0.12051 0.25391-0.10247 0.36991 0.051556l1.0736 1.4229c0.56196 0.74627 0.47818 1.5434-0.2668 2.1054zm-0.55551-1.6111-0.53876-0.71404-0.84293 0.63542 0.5394 0.71276c0.20493 0.2726 0.4756 0.31062 0.74304 0.10891 0.26744-0.20171 0.30482-0.47173 0.099244-0.74433v0.0012889z" fill="#004E9E"/>
<path id="Path" d="m17.297 46.293-2.6293 3.0869c-0.12502 0.14693-0.21524 0.15402-0.36733 0.024489l-0.36733-0.31256c-0.14693-0.12567-0.15402-0.21589-0.029-0.36282l0.94669-1.1123c0.25456-0.29902 0.56969-0.58902 1.1007-0.96667l-0.043822-0.037378c-0.36698 0.23243-0.75675 0.42677-1.1632 0.58l-0.87773 0.32609c-0.14178 0.056711-0.21911 0.058644-0.34156-0.045756l-0.22556-0.19333c-0.12244-0.1044-0.14113-0.17142-0.1044-0.33447l0.17722-0.92284c0.081955-0.42352 0.22114-0.83393 0.41373-1.2199l-0.043822-0.037378c-0.30869 0.59998-0.51556 0.90222-0.79653 1.2328l-0.94282 1.111c-0.12502 0.14693-0.21589 0.15467-0.36282 0.029l-0.348-0.2958c-0.14629-0.12502-0.15918-0.2204-0.033511-0.36669l2.6287-3.0869c0.12502-0.14693 0.2204-0.15016 0.36733-0.024489l0.319 0.27131c0.16111 0.13727 0.1856 0.2088 0.15402 0.38667l-0.51556 2.4192 2.3078-0.88353c0.18173-0.064444 0.24167-0.055422 0.39376 0.073467l0.348 0.29644c0.15273 0.1276 0.16047 0.21847 0.035444 0.3654z" fill="#004E9E"/>
<path id="Path" d="m19.481 47.055c0.83004 0.44016 1.1149 0.94798 1.0814 1.644-0.0051556 0.20107-0.0928 0.25778-0.28807 0.24102l-0.53167-0.041244c-0.18431-0.010311-0.23136-0.072178-0.23587-0.27067 0.0077333-0.30224-0.11342-0.54133-0.47173-0.73144-0.46658-0.24682-0.73467-0.23587-0.87967 0.037378-0.1624 0.30676 0.1972 0.58 0.63027 0.87258 0.62382 0.43178 1.3404 1.0311 0.81007 2.0319-0.41244 0.77913-1.3327 0.96151-2.3793 0.40729-0.8874-0.47044-1.2045-1.0537-1.1097-1.7684 0.030289-0.19333 0.11536-0.24489 0.30482-0.21718l0.493 0.072178c0.19849 0.024489 0.24553 0.086356 0.22942 0.2958-0.016111 0.30482 0.16176 0.58838 0.52587 0.78171 0.48333 0.25778 0.82231 0.27582 0.99438-0.048978 0.15016-0.2842-0.15402-0.54778-0.551-0.81651-0.63864-0.43758-1.4726-1.0279-0.91833-2.0745 0.38924-0.73338 1.2328-0.97827 2.2962-0.41502z" fill="#004E9E"/>
<path id="Path" d="m24.492 49.355-0.12889 0.4118c-0.058 0.18431-0.13856 0.2262-0.32867 0.16691l-0.95829-0.30031-1.0021 3.2003c-0.059933 0.19333-0.14049 0.23264-0.33124 0.17336l-0.49751-0.15596c-0.18367-0.057356-0.2262-0.13856-0.16627-0.32867l1.0021-3.201-0.96667-0.3016c-0.19011-0.059289-0.23264-0.13984-0.17464-0.32222l0.12889-0.41116c0.059933-0.19333 0.13984-0.23264 0.3306-0.17271l2.9174 0.91318c0.19269 0.057356 0.23651 0.13791 0.17529 0.32802z" fill="#004E9E"/>
<path id="Shape" d="m27.169 54.099-0.47624-0.0754c-0.31771-0.050267-0.40536-0.11664-0.43307-0.30998l-0.10247-0.62833-1.5699-0.24876-0.29838 0.56518c-0.092156 0.174-0.18302 0.21202-0.50073 0.16176l-0.43887-0.0696c-0.19011-0.029644-0.22169-0.11987-0.12889-0.28098l2.1589-3.8022c0.091511-0.16756 0.174-0.19333 0.35187-0.16562l0.48978 0.077333c0.17722 0.028356 0.25456 0.079911 0.28549 0.25391l0.87709 4.2959c0.034156 0.18109-0.030289 0.25584-0.2146 0.22684zm-1.3353-3.8667-0.064444-0.010311c-0.050649 0.30721-0.14778 0.60492-0.28807 0.88289l-0.48784 0.93896 1.0311 0.16304-0.17593-1.0376c-0.04386-0.31051-0.048839-0.62528-0.014822-0.93702z" fill="#004E9E"/>
<path id="Shape" d="m31.491 51.187 0.028356 1.1065c0.027067 1.0685-0.6322 1.7484-1.8547 1.7793l-1.5054 0.038022c-0.19333 0.0045111-0.26551-0.057356-0.27067-0.25778l-0.10247-4.0374c-0.0051555-0.19978 0.064444-0.26551 0.25778-0.27067l1.5061-0.038022c1.2219-0.034156 1.914 0.61158 1.9411 1.6801zm-1.9243-0.7308-0.71404 0.018044 0.064444 2.6577 0.71404-0.018044c0.56647-0.014178 0.85582-0.28549 0.84293-0.79396l-0.027711-1.1072c-0.010311-0.50782-0.3132-0.77076-0.87967-0.75658z" fill="#004E9E"/>
<path id="Path" d="m35.187 48.913 0.092156 0.42147c0.041889 0.18882-0.0077333 0.26487-0.20236 0.30804l-0.98536 0.21396 0.7192 3.2757c0.043178 0.19333-0.0064444 0.27196-0.20107 0.31449l-0.50911 0.11213c-0.18882 0.041244-0.26551-0.0077333-0.30869-0.203l-0.71856-3.2757-0.98729 0.21653c-0.19333 0.042533-0.27196-0.0058-0.3132-0.19333l-0.092156-0.42147c-0.043178-0.19333 0.0058-0.27196 0.20107-0.31449l2.9864-0.6554c0.19784-0.044467 0.27453 0.0077333 0.319 0.20107z" fill="#004E9E"/>
<path id="Path" d="m38.805 47.331 1.7458 3.645c0.086356 0.18044 0.050267 0.26873-0.12373 0.35251l-0.47109 0.22749c-0.17464 0.083778-0.26616 0.056067-0.35251-0.12373l-1.3037-2.7228-0.406 0.58644c-0.12889 0.19333-0.24811 0.1972-0.40471 0.079267l-0.38087-0.26809c-0.15338-0.11213-0.14887-0.20687-0.036733-0.37507l0.75787-1.1123c0.066884-0.11471 0.16972-0.20418 0.29258-0.25456l0.3306-0.15853c0.17464-0.083133 0.2668-0.055422 0.35251 0.12438z" fill="#004E9E"/>
<path id="Shape" d="m40.42 45.904c0.90222-0.6148 1.6362-0.55873 2.0874 0.10698 0.2252 0.32492 0.27125 0.74154 0.12244 1.1078 0.435-0.047044 0.85582 0.056711 1.1884 0.54649 0.45884 0.67602 0.35316 1.4487-0.72242 2.1789-1.0756 0.73016-1.7767 0.5916-2.2104-0.047044-0.32222-0.47431-0.20107-0.96087-0.054133-1.2708-0.37442 0-0.73853-0.15982-1.0311-0.5858-0.4698-0.69729-0.22684-1.4616 0.61996-2.0364zm0.50976 0.72758c-0.33576 0.22749-0.41567 0.47624-0.24231 0.73209 0.17336 0.25584 0.42147 0.21911 0.77333 0.096667l0.26358-0.0928c0.11084-0.19333 0.17271-0.44467-0.0045111-0.70567s-0.46013-0.25456-0.79009-0.030289zm0.78751 1.7213c-0.11471 0.18624-0.22298 0.46207-0.016756 0.7656 0.17336 0.25778 0.45111 0.29451 0.90222-0.012889s0.49171-0.55938 0.31771-0.81522c-0.24618-0.36153-0.64444-0.14564-1.2032 0.062511z" fill="#004E9E"/>
<path id="Shape" d="m45.296 45.783c-0.84616 0.8294-1.5886 0.85324-2.2826 0.14564-0.65798-0.67087-0.57162-1.5467 0.22813-2.3329 0.83778-0.82038 1.7336-0.79782 2.4818-0.0348l0.93444 0.95636c0.74756 0.76302 0.7482 1.6646-0.083778 2.4798-0.65798 0.64444-1.3005 0.77333-1.9533 0.47238-0.17658-0.079267-0.19849-0.17464-0.11922-0.35187l0.21396-0.45111c0.079267-0.17658 0.16562-0.18947 0.35573-0.11471 0.27711 0.11664 0.54133 0.0464 0.82682-0.23264 0.35831-0.35187 0.3712-0.70889 0.019978-1.0653l-0.095378-0.096667c-0.15197 0.2273-0.32854 0.43716-0.52651 0.62576zm-1.392-1.5099c-0.36282 0.35573-0.40278 0.66507-0.15016 0.9222 0.25262 0.25713 0.52973 0.25778 0.92542-0.12889 0.29838-0.29258 0.42404-0.50524 0.46593-0.60062l-0.203-0.20687c-0.32931-0.34027-0.67924-0.33898-1.0382 0.014178z" fill="#004E9E"/>
<path id="Shape" d="m45.627 40.8c0.63091-0.8932 1.3346-1.0956 1.9913-0.63349 0.32477 0.22533 0.51403 0.59924 0.50331 0.99438 0.39118-0.19656 0.82102-0.24747 1.3044 0.094733 0.66764 0.47173 0.83778 1.2315 0.089578 2.2929s-1.4532 1.1761-2.0841 0.73209c-0.46722-0.3306-0.52522-0.82811-0.49622-1.1703-0.35187 0.12889-0.74756 0.1102-1.1684-0.18753-0.68827-0.48591-0.72887-1.287-0.13984-2.1228zm0.73209 0.50202c-0.23393 0.33124-0.22169 0.59224 0.030933 0.77333s0.47173 0.058 0.75851-0.18044l0.21396-0.1798c0.036089-0.21911 0.0058-0.47689-0.25133-0.65862-0.25713-0.18173-0.51749-0.080556-0.75013 0.24553h-0.0019333zm1.3424 1.3346c-0.041244 0.21524-0.0464 0.51104 0.25327 0.72307 0.25262 0.17851 0.52329 0.11793 0.83778-0.32931s0.26358-0.696 0.0116-0.87451c-0.35444-0.25262-0.65089 0.089578-1.1007 0.48076h-0.0019334z" fill="#004E9E"/>
<path id="Shape" d="m49.211 38.081c0.3654-0.81844 1.0034-0.97698 1.5705-0.72436l0.30031 0.13469c0.14822 0.064444 0.21847 0.174 0.13211 0.36604l-0.61093 1.3701 0.12309 0.054778c0.26616 0.11922 0.464 0.0064445 0.58709-0.26938 0.10376-0.232 0.090867-0.41502 0.012244-0.5568-0.078622-0.14178-0.074756-0.20429 0.064444-0.31384l0.23007-0.18431c0.12889-0.10698 0.22878-0.087644 0.32609 0.050911 0.20944 0.31191 0.22556 0.72693-0.025133 1.2889-0.37829 0.84809-0.99889 0.96667-1.6201 0.6902l-0.52264-0.23329c-0.71018-0.319-0.90802-0.90996-0.56711-1.6736zm0.5916 0.26358c-0.12889 0.28613-0.064444 0.49816 0.18367 0.60836l0.079267 0.0348 0.3944-0.87709-0.078622-0.035444c-0.2494-0.1102-0.44853-0.021267-0.57871 0.26938z" fill="#004E9E"/>
<path id="Path" d="m52.446 36.885 0.064444 0.021911c0.19333 0.064444 0.22813 0.15016 0.1624 0.34027l-0.019333 0.056711c-0.064444 0.19011-0.14629 0.22942-0.33704 0.16369l-0.064444-0.021911c-0.19333-0.064444-0.23264-0.14822-0.16756-0.33833l0.019978-0.056711c0.065733-0.18818 0.14758-0.23264 0.34156-0.16562z" fill="#004E9E"/>
<path id="Path" d="m50.069 33.16 2.9799 2.1054c0.12889 0.0928 0.14371 0.16884 0.1044 0.30933l-0.116 0.42147c-0.0406 0.14564-0.090867 0.20429-0.23909 0.21396l-3.6501 0.26938c-0.15467 0.012889-0.21073-0.047689-0.16884-0.19849l0.10827-0.38989c0.073467-0.26551 0.13533-0.32673 0.29967-0.33189l2.1093-0.0696c0.22088 2.451e-4 0.44152 0.014667 0.66056 0.043178l0.0116-0.041244c-0.20069-0.085962-0.39457-0.187-0.58-0.30224l-1.78-1.1381c-0.13791-0.088933-0.15918-0.17336-0.087-0.43371l0.10504-0.37958c0.039311-0.1508 0.11729-0.16884 0.24231-0.077978z" fill="#004E9E"/>
<path id="Path" d="m53.218 33.98 0.064444 0.014178c0.19656 0.042533 0.24424 0.12116 0.203 0.31771l-0.012889 0.058644c-0.041889 0.19333-0.11729 0.24553-0.31384 0.20364l-0.064444-0.014822c-0.20042-0.042533-0.24876-0.11793-0.20687-0.31449l0.012889-0.058644c0.041889-0.19656 0.11793-0.24876 0.31771-0.20622z" fill="#004E9E"/>
<path id="Path" d="m9.3335 13.647c0.58-0.73918 1.1304-0.92864 1.8096-0.77333 0.1972 0.039956 0.23651 0.13662 0.1856 0.32609l-0.13469 0.51556c-0.042533 0.1798-0.11149 0.21524-0.30804 0.18431-0.29644-0.064444-0.55293 0.015467-0.80298 0.33447-0.32609 0.41502-0.36347 0.68118-0.11987 0.87193 0.27324 0.2146 0.6032-0.090867 0.97053-0.46529 0.53618-0.53682 1.2528-1.1362 2.1434-0.43629 0.69342 0.54456 0.70889 1.4822-0.021267 2.4141-0.61802 0.79073-1.2509 0.99953-1.9372 0.78107-0.18689-0.064444-0.22104-0.15724-0.15982-0.33898l0.15853-0.47238c0.059289-0.19333 0.12889-0.22684 0.33189-0.17336 0.29709 0.070244 0.60771-0.054778 0.86227-0.37829 0.33769-0.43049 0.4176-0.76109 0.12889-0.98729-0.25327-0.19913-0.56647 0.054133-0.90222 0.39698-0.54842 0.55164-1.2734 1.267-2.2053 0.53553-0.65153-0.51556-0.74304-1.3881 6.4445e-4 -2.3348z" fill="#004E9E"/>
<path id="Shape" d="m15.136 10.189c0.6322 0.72887 0.55036 1.5583-0.18367 2.195l-0.70889 0.61544 0.80104 0.92413c0.12889 0.1508 0.11987 0.24553-0.026422 0.37249l-0.39376 0.34091c-0.14564 0.12889-0.24167 0.12438-0.37249-0.026422l-2.6519-3.0534c-0.12889-0.1508-0.11922-0.24618 0.027067-0.37249l1.3056-1.1316c0.72436-0.6264 1.5705-0.59353 2.2034 0.13598zm-0.82167 0.70889c-0.24038-0.27711-0.55358-0.30353-0.83778-0.054778l-0.62704 0.54391 0.76689 0.88482 0.62576-0.54327c0.28098-0.24231 0.31256-0.55036 0.072178-0.82747v-0.0032222z" fill="#004E9E"/>
<path id="Shape" d="m16.498 7.4298c1.0588-0.61158 1.981-0.37958 2.5133 0.54584l0.65089 1.1252c0.53489 0.92542 0.27582 1.8405-0.783 2.4528s-1.9759 0.37636-2.5133-0.54842l-0.64122-1.1258c-0.53747-0.92156-0.2784-1.8405 0.77333-2.4495zm0.47947 0.83069c-0.46787 0.27067-0.60964 0.64444-0.35831 1.0769l0.67022 1.16c0.25133 0.43436 0.64444 0.49751 1.1123 0.22684 0.46787-0.27067 0.61544-0.64444 0.36411-1.0807l-0.67022-1.16c-0.2494-0.43436-0.64251-0.49687-1.1162-0.22298h-0.0019334z" fill="#004E9E"/>
<path id="Shape" d="m23.306 6.2853c0.20493 0.61029 0.093444 1.1291-0.28871 1.488 0.069567 0.053352 0.13625 0.11036 0.19978 0.17078l1.0311 0.99116c0.12889 0.11987 0.14242 0.24424-0.0406 0.30547l-0.48784 0.16369c-0.31127 0.10376-0.43758 0.092156-0.59224-0.064444l-0.76496-0.79073c-0.22813-0.23522-0.37056-0.27582-0.72436-0.15724l-0.25069 0.083778 0.43178 1.2889c0.064444 0.18947 0.016111 0.2726-0.16691 0.33382l-0.49364 0.16562c-0.18302 0.064444-0.27067 0.0232-0.33447-0.16627l-1.2844-3.8338c-0.064444-0.18882-0.016756-0.2726 0.16627-0.33382l1.6897-0.56582c0.88547-0.29644 1.6143 0.036089 1.9101 0.92091zm-1.7046 0.014822-0.85002 0.2842 0.33511 1.0002 0.84809-0.28356c0.32222-0.10891 0.44467-0.35316 0.33833-0.67022-0.10633-0.31707-0.34864-0.43887-0.67151-0.3306z" fill="#004E9E"/>
<path id="Path" d="m27.179 4.4467 0.064444 0.42662c0.027711 0.19333-0.026422 0.26422-0.22427 0.29322l-0.99309 0.145 0.48527 3.3176c0.029 0.1972-0.025778 0.27067-0.22298 0.29967l-0.51556 0.0754c-0.19333 0.027711-0.26422-0.026422-0.29322-0.22427l-0.48527-3.3176-1.0015 0.14758c-0.1972 0.029-0.27002-0.025133-0.29838-0.21653l-0.064444-0.42662c-0.028356-0.1972 0.025778-0.27002 0.22298-0.29902l3.025-0.44273c0.19913-0.028356 0.27196 0.028356 0.30096 0.22169z" fill="#004E9E"/>
<path id="Path" d="m31.733 4.504-1.5782 4.0523c-0.068956 0.17851-0.15338 0.21524-0.32738 0.21009l-0.52136-0.014178c-0.1798-0.0045111-0.26293-0.045756-0.31578-0.2146l-1.3624-4.1444c-0.059933-0.17593-0.0058-0.25778 0.18044-0.25262l0.48269 0.012889c0.32802 0.0090222 0.41696 0.064444 0.4698 0.25069l0.6902 2.4205c0.063129 0.25452 0.10984 0.51283 0.13984 0.77333h0.051556c0.0413-0.25792 0.10205-0.51234 0.18173-0.76109l0.80491-2.3844c0.064444-0.18496 0.15467-0.23393 0.47624-0.22556l0.4698 0.012889c0.18367 0.0077333 0.22684 0.092156 0.15789 0.26422z" fill="#004E9E"/>
<path id="Path" d="m35.528 5.2651-0.083133 0.42276c-0.038667 0.18947-0.11471 0.23909-0.30998 0.19978l-1.7658-0.3596-0.16562 0.81393 1.4481 0.2958c0.19333 0.039956 0.24553 0.11536 0.20687 0.30482l-0.085711 0.42276c-0.039956 0.19333-0.11536 0.24553-0.31127 0.20558l-1.4506-0.29516-0.17464 0.85776 1.8296 0.37313c0.18882 0.038667 0.24424 0.1218 0.20558 0.31127l-0.085711 0.42211c-0.039956 0.19333-0.12244 0.24489-0.31127 0.20622l-2.5984-0.52844c-0.18947-0.038667-0.24618-0.116-0.20622-0.31127l0.80556-3.9608c0.039956-0.19333 0.12244-0.24489 0.31127-0.20622l2.5359 0.51556c0.19527 0.038667 0.24553 0.11471 0.20558 0.30998z" fill="#004E9E"/>
<path id="Shape" d="m39.818 8.2231c-0.25069 0.59289-0.67796 0.90867-1.2012 0.92478 0.019978 0.085067 0.025133 0.17142 0.036733 0.25778l0.11664 1.4262c0.016756 0.17464-0.054133 0.27711-0.232 0.20236l-0.47431-0.20042c-0.30224-0.12889-0.38667-0.2204-0.4002-0.44209l-0.052844-1.0956c-0.014822-0.32738-0.095378-0.45111-0.43887-0.59804l-0.24489-0.10311-0.52909 1.2509c-0.077333 0.18367-0.16756 0.21524-0.34542 0.14049l-0.47882-0.20364c-0.17787-0.074756-0.21782-0.16176-0.14049-0.34542l1.5737-3.7223c0.077978-0.18367 0.1682-0.21524 0.34607-0.14049l1.6414 0.69407c0.86033 0.36347 1.1871 1.0956 0.8236 1.9546zm-1.2889-1.1175-0.82424-0.348-0.41051 0.97182 0.8236 0.34864c0.31449 0.13276 0.56711 0.030289 0.69729-0.2784s0.028356-0.56067-0.28549-0.69407h-6.444e-4z" fill="#004E9E"/>
<path id="Path" d="m44.098 9.5462-0.24102 0.35767c-0.10827 0.15982-0.1972 0.17787-0.36282 0.064444l-1.4945-1.0073-0.464 0.68891 1.2277 0.82682c0.16562 0.11149 0.18302 0.20107 0.0754 0.36089l-0.24102 0.3596c-0.11149 0.16562-0.20107 0.18302-0.36669 0.071533l-1.2244-0.82682-0.48913 0.72564 1.5467 1.0427c0.15982 0.10827 0.17916 0.20622 0.070889 0.36669l-0.24102 0.35767c-0.11149 0.16498-0.20558 0.17916-0.36604 0.070889l-2.1995-1.4822c-0.15982-0.10827-0.18238-0.20107-0.070889-0.36669l2.2556-3.3511c0.11213-0.16562 0.20622-0.1798 0.36669-0.071533l2.146 1.4455c0.16627 0.11213 0.18302 0.20107 0.072178 0.36669z" fill="#004E9E"/>
<path id="Path" d="m45.483 10.417 0.39633 0.35767c0.14371 0.12889 0.14822 0.2204 0.018689 0.36347l-2.7163 3.0096c-0.12889 0.14371-0.2204 0.14822-0.36347 0.018689l-0.39633-0.35767c-0.14371-0.12889-0.14822-0.2204-0.018689-0.36347l2.7163-3.0102c0.12889-0.14307 0.2204-0.14758 0.36347-0.018044z" fill="#004E9E"/>
<path id="Path" d="m49.19 14.841-3.1178 2.5726c-0.15402 0.12889-0.24424 0.11793-0.36733-0.030933l-0.33189-0.40213c-0.081844-0.099244-0.10182-0.174-0.068956-0.27647l0.67602-2.1911c0.13873-0.41972 0.33548-0.81797 0.58451-1.1832l-0.029-0.0348c-0.29243 0.3877-0.62677 0.74193-0.99696 1.0562l-1.1864 0.97956c-0.15402 0.12889-0.24876 0.11342-0.37184-0.036089l-0.30289-0.36733c-0.12309-0.14887-0.11858-0.24424 0.035444-0.3712l3.1178-2.5726c0.15338-0.12889 0.24876-0.11342 0.3712 0.035444l0.34027 0.41244c0.072766 0.070009 0.097956 0.17606 0.064444 0.27131l-0.68504 2.2343c-0.174 0.58-0.47496 1.0008-0.55229 1.14l0.032867 0.039956c0.26758-0.4009 0.59337-0.75971 0.96667-1.0646l1.1864-0.97891c0.15338-0.12889 0.24424-0.11793 0.3712 0.035444l0.30289 0.36798c0.12309 0.14693 0.11407 0.23716-0.039311 0.36411z" fill="#004E9E"/>
<path id="Path" d="m9.3335 13.647c0.58-0.73918 1.1304-0.92864 1.8096-0.77333 0.1972 0.039956 0.23651 0.13662 0.1856 0.32609l-0.13469 0.51556c-0.042533 0.1798-0.11149 0.21524-0.30804 0.18431-0.29644-0.064444-0.55293 0.015467-0.80298 0.33447-0.32609 0.41502-0.36347 0.68118-0.11987 0.87193 0.27324 0.2146 0.6032-0.090867 0.97053-0.46529 0.53618-0.53682 1.2528-1.1362 2.1434-0.43629 0.69342 0.54456 0.70889 1.4822-0.021267 2.4141-0.61802 0.79073-1.2509 0.99953-1.9372 0.78107-0.18689-0.064444-0.22104-0.15724-0.15982-0.33898l0.15853-0.47238c0.059289-0.19333 0.12889-0.22684 0.33189-0.17336 0.29709 0.070244 0.60771-0.054778 0.86227-0.37829 0.33769-0.43049 0.4176-0.76109 0.12889-0.98729-0.25327-0.19913-0.56647 0.054133-0.90222 0.39698-0.54842 0.55164-1.2734 1.267-2.2053 0.53553-0.65153-0.51556-0.74304-1.3881 6.4445e-4 -2.3348z" fill="#004E9E"/>
<path id="Shape" d="m15.136 10.189c0.6322 0.72887 0.55036 1.5583-0.18367 2.195l-0.70889 0.61544 0.80104 0.92413c0.12889 0.1508 0.11987 0.24553-0.026422 0.37249l-0.39376 0.34091c-0.14564 0.12889-0.24167 0.12438-0.37249-0.026422l-2.6519-3.0534c-0.12889-0.1508-0.11922-0.24618 0.027067-0.37249l1.3056-1.1316c0.72436-0.6264 1.5705-0.59353 2.2034 0.13598zm-0.82167 0.70889c-0.24038-0.27711-0.55358-0.30353-0.83778-0.054778l-0.62704 0.54391 0.76689 0.88482 0.62576-0.54327c0.28098-0.24231 0.31256-0.55036 0.072178-0.82747v-0.0032222z" fill="#004E9E"/>
<path id="Shape" d="m16.498 7.4298c1.0588-0.61158 1.981-0.37958 2.5133 0.54584l0.65089 1.1252c0.53489 0.92542 0.27582 1.8405-0.783 2.4528s-1.9759 0.37636-2.5133-0.54842l-0.64122-1.1258c-0.53747-0.92156-0.2784-1.8405 0.77333-2.4495zm0.47947 0.83069c-0.46787 0.27067-0.60964 0.64444-0.35831 1.0769l0.67022 1.16c0.25133 0.43436 0.64444 0.49751 1.1123 0.22684 0.46787-0.27067 0.61544-0.64444 0.36411-1.0807l-0.67022-1.16c-0.2494-0.43436-0.64251-0.49687-1.1162-0.22298h-0.0019334z" fill="#004E9E"/>
<path id="a" d="m23.306 6.2853c0.20493 0.61029 0.093444 1.1291-0.28871 1.488 0.069567 0.053352 0.13625 0.11036 0.19978 0.17078l1.0311 0.99116c0.12889 0.11987 0.14242 0.24424-0.0406 0.30547l-0.48784 0.16369c-0.31127 0.10376-0.43758 0.092156-0.59224-0.064444l-0.76496-0.79073c-0.22813-0.23522-0.37056-0.27582-0.72436-0.15724l-0.25069 0.083778 0.43178 1.2889c0.064444 0.18947 0.016111 0.2726-0.16691 0.33382l-0.49364 0.16562c-0.18302 0.064444-0.27067 0.0232-0.33447-0.16627l-1.2844-3.8338c-0.064444-0.18882-0.016756-0.2726 0.16627-0.33382l1.6897-0.56582c0.88547-0.29644 1.6143 0.036089 1.9101 0.92091zm-1.7046 0.014822-0.85002 0.2842 0.33511 1.0002 0.84809-0.28356c0.32222-0.10891 0.44467-0.35316 0.33833-0.67022-0.10633-0.31707-0.34864-0.43887-0.67151-0.3306z" fill="#004E9E"/>
<path id="Path" d="m27.179 4.4467 0.064444 0.42662c0.027711 0.19333-0.026422 0.26422-0.22427 0.29322l-0.99309 0.145 0.48527 3.3176c0.029 0.1972-0.025778 0.27067-0.22298 0.29967l-0.51556 0.0754c-0.19333 0.027711-0.26422-0.026422-0.29322-0.22427l-0.48527-3.3176-1.0015 0.14758c-0.1972 0.029-0.27002-0.025133-0.29838-0.21653l-0.064444-0.42662c-0.028356-0.1972 0.025778-0.27002 0.22298-0.29902l3.025-0.44273c0.19913-0.028356 0.27196 0.028356 0.30096 0.22169z" fill="#004E9E"/>
<path id="Path" d="m31.733 4.504-1.5782 4.0523c-0.068956 0.17851-0.15338 0.21524-0.32738 0.21009l-0.52136-0.014178c-0.1798-0.0045111-0.26293-0.045756-0.31578-0.2146l-1.3624-4.1444c-0.059933-0.17593-0.0058-0.25778 0.18044-0.25262l0.48269 0.012889c0.32802 0.0090222 0.41696 0.064444 0.4698 0.25069l0.6902 2.4205c0.063129 0.25452 0.10984 0.51283 0.13984 0.77333h0.051556c0.0413-0.25792 0.10205-0.51234 0.18173-0.76109l0.80491-2.3844c0.064444-0.18496 0.15467-0.23393 0.47624-0.22556l0.4698 0.012889c0.18367 0.0077333 0.22684 0.092156 0.15789 0.26422z" fill="#004E9E"/>
<path id="Path" d="m35.528 5.2651-0.083133 0.42276c-0.038667 0.18947-0.11471 0.23909-0.30998 0.19978l-1.7658-0.3596-0.16562 0.81393 1.4481 0.2958c0.19333 0.039956 0.24553 0.11536 0.20687 0.30482l-0.085711 0.42276c-0.039956 0.19333-0.11536 0.24553-0.31127 0.20558l-1.4506-0.29516-0.17464 0.85776 1.8296 0.37313c0.18882 0.038667 0.24424 0.1218 0.20558 0.31127l-0.085711 0.42211c-0.039956 0.19333-0.12244 0.24489-0.31127 0.20622l-2.5984-0.52844c-0.18947-0.038667-0.24618-0.116-0.20622-0.31127l0.80556-3.9608c0.039956-0.19333 0.12244-0.24489 0.31127-0.20622l2.5359 0.51556c0.19527 0.038667 0.24553 0.11471 0.20558 0.30998z" fill="#004E9E"/>
<path d="m39.818 8.2231c-0.25069 0.59289-0.67796 0.90867-1.2012 0.92478 0.019978 0.085067 0.025133 0.17142 0.036733 0.25778l0.11664 1.4262c0.016756 0.17464-0.054133 0.27711-0.232 0.20236l-0.47431-0.20042c-0.30224-0.12889-0.38667-0.2204-0.4002-0.44209l-0.052844-1.0956c-0.014822-0.32738-0.095378-0.45111-0.43887-0.59804l-0.24489-0.10311-0.52909 1.2509c-0.077333 0.18367-0.16756 0.21524-0.34542 0.14049l-0.47882-0.20364c-0.17787-0.074756-0.21782-0.16176-0.14049-0.34542l1.5737-3.7223c0.077978-0.18367 0.1682-0.21524 0.34607-0.14049l1.6414 0.69407c0.86033 0.36347 1.1871 1.0956 0.8236 1.9546zm-1.2889-1.1175-0.82424-0.348-0.41051 0.97182 0.8236 0.34864c0.31449 0.13276 0.56711 0.030289 0.69729-0.2784s0.028356-0.56067-0.28549-0.69407h-6.444e-4z" fill="#004E9E"/>
<path id="Path" d="m44.098 9.5462-0.24102 0.35767c-0.10827 0.15982-0.1972 0.17787-0.36282 0.064444l-1.4945-1.0073-0.464 0.68891 1.2277 0.82682c0.16562 0.11149 0.18302 0.20107 0.0754 0.36089l-0.24102 0.3596c-0.11149 0.16562-0.20107 0.18302-0.36669 0.071533l-1.2244-0.82682-0.48913 0.72564 1.5467 1.0427c0.15982 0.10827 0.17916 0.20622 0.070889 0.36669l-0.24102 0.35767c-0.11149 0.16498-0.20558 0.17916-0.36604 0.070889l-2.1995-1.4822c-0.15982-0.10827-0.18238-0.20107-0.070889-0.36669l2.2556-3.3511c0.11213-0.16562 0.20622-0.1798 0.36669-0.071533l2.146 1.4455c0.16627 0.11213 0.18302 0.20107 0.072178 0.36669z" fill="#004E9E"/>
<path id="Path" d="m45.483 10.417 0.39633 0.35767c0.14371 0.12889 0.14822 0.2204 0.018689 0.36347l-2.7163 3.0096c-0.12889 0.14371-0.2204 0.14822-0.36347 0.018689l-0.39633-0.35767c-0.14371-0.12889-0.14822-0.2204-0.018689-0.36347l2.7163-3.0102c0.12889-0.14307 0.2204-0.14758 0.36347-0.018044z" fill="#004E9E"/>
<path id="Path" d="m49.19 14.841-3.1178 2.5726c-0.15402 0.12889-0.24424 0.11793-0.36733-0.030933l-0.33189-0.40213c-0.081844-0.099244-0.10182-0.174-0.068956-0.27647l0.67602-2.1911c0.13873-0.41972 0.33548-0.81797 0.58451-1.1832l-0.029-0.0348c-0.29243 0.3877-0.62677 0.74193-0.99696 1.0562l-1.1864 0.97956c-0.15402 0.12889-0.24876 0.11342-0.37184-0.036089l-0.30289-0.36733c-0.12309-0.14887-0.11858-0.24424 0.035444-0.3712l3.1178-2.5726c0.15338-0.12889 0.24876-0.11342 0.3712 0.035444l0.34027 0.41244c0.072766 0.070009 0.097956 0.17606 0.064444 0.27131l-0.68504 2.2343c-0.174 0.58-0.47496 1.0008-0.55229 1.14l0.032867 0.039956c0.26758-0.4009 0.59337-0.75971 0.96667-1.0646l1.1864-0.97891c0.15338-0.12889 0.24424-0.11793 0.3712 0.035444l0.30289 0.36798c0.12309 0.14693 0.11407 0.23716-0.039311 0.36411z" fill="#004E9E"/>
<path id="Path" d="m6.7177 23.865c0.15099 0.24564 0.3334 0.47052 0.54262 0.66893 0.19791 0.20872 0.42187 0.3911 0.66636 0.54262-0.24626 0.1512-0.47177 0.33382-0.67087 0.54327-0.25778 0.25778-0.45691 0.50782-0.54327 0.67087-0.086356-0.16304-0.28549-0.41244-0.54198-0.66893-0.25649-0.25649-0.50653-0.45627-0.66893-0.54262 0.1624-0.086356 0.41309-0.28613 0.67087-0.54327 0.25778-0.25713 0.45691-0.50782 0.54262-0.67087h0.0025778z" fill="#004E9E"/>
<path id="b" d="m51.321 23.865c0.086356 0.16304 0.28549 0.41309 0.54198 0.66893 0.19871 0.2089 0.42354 0.39128 0.66893 0.54262-0.1624 0.086356-0.41309 0.28613-0.67087 0.54327s-0.45691 0.50782-0.54262 0.67087c-0.087-0.16304-0.28613-0.41244-0.54262-0.66893s-0.50653-0.45627-0.66893-0.54262c0.24626-0.1512 0.47177-0.33382 0.67087-0.54327 0.25778-0.25778 0.45691-0.50782 0.54327-0.67087z" fill="#004E9E"/>
<path d="m29.006 13.26c-0.10569 0-0.34736 0.10827-0.93702 1.1471-1.0221 1.8006-3.9369 4.3874-3.9369 6.9884 0 2.3542 0.638 3.5502 2.0758 6.7738 0.73402 1.6453 0.98729 4.8333 1.0311 5.1755 0.020622 0.16627 0.10956 0.66507-0.29967 0.66507-0.33382 0-0.37636-0.23007-0.49622-0.75207-0.12889-0.55616-0.38667-2.8517-1.7162-4.7334s-3.8667-3.964-7.0979-3.5747c-3.2312 0.38924-4.7618 2.7247-4.4699 4.9764s1.8947 2.7962 2.8936 3.2957c0.99889 0.49944 1.0769 1.2586 1.1026 1.635 0.025778 0.37636 0.19333 0.35444 0.61029 0.1102 0.3306-0.19333 0.6902-0.80813 0.60964-1.6801-0.051556-0.56453-0.3828-0.73982-0.3828-2.3161 0-1.0769 1.1226-1.6807 2.1911-1.6807 0.67473 0 2.9644 0.92413 4.243 4.1199 0.11664 0.29193 0.12309 0.45111-0.10376 0.49944-0.22684 0.048333-0.92091 0.12373-0.92091 1.1548s0.27324 1.4113 0.87709 1.4113 0.34349 0.40213 0.22684 0.63607c-0.10247 0.20558-0.48656 1.0704-2.1473 1.0704-1.6607 0-2.349 1.2328-2.349 2.1537s0.34284 0.48849 0.69407 0.39569c0.64444-0.1682 1.0775 0.12373 1.7129 0.24038 0.66829 0.12244 2.2646-0.29838 2.9522-1.0898 0.68762-0.79138 1.2631-2.1151 1.2631-2.8484 0-0.73338 0.21396-0.82424 0.39569-0.82424 0.18173 0 0.37636 0.084422 0.37636 0.75916 0 2.3683-1.0556 3.1275-1.0556 4.5221 0 1.1162 0.59031 1.6717 1.2328 2.3877 0.51169 0.57033 1.0453 1.1484 1.4255 1.1484 0.37958 0 0.91318-0.58 1.4249-1.1484 0.64444-0.71598 1.2328-1.2715 1.2328-2.3877 0-1.3946-1.0556-2.1537-1.0556-4.5221 0-0.67473 0.19333-0.75916 0.37636-0.75916s0.39569 0.090867 0.39569 0.82424c0 0.73338 0.57549 2.0564 1.2631 2.8484s2.2839 1.2122 2.9522 1.0898c0.63607-0.11664 1.0704-0.40858 1.7129-0.24038 0.35122 0.0928 0.69407 0.52587 0.69407-0.39569 0-0.92156-0.68956-2.155-2.3484-2.155s-2.0448-0.86742-2.1479-1.0704c-0.11664-0.23393-0.37636-0.63607 0.22749-0.63607 0.60384 0 0.8758-0.37636 0.8758-1.4081 0-1.0318-0.69471-1.1091-0.92156-1.1548-0.22684-0.045756-0.2204-0.20751-0.10376-0.49944 1.2799-3.1958 3.5683-4.1199 4.2443-4.1199 1.0704 0 2.1911 0.60384 2.1911 1.6807 0 1.5763-0.3306 1.7516-0.3828 2.3161-0.079911 0.87193 0.27904 1.4854 0.60964 1.6801 0.41438 0.24424 0.58387 0.26616 0.61029-0.1102 0.026422-0.37636 0.10376-1.1355 1.1026-1.635 0.99889-0.49944 2.6016-1.0446 2.8936-3.2957 0.29193-2.251-1.2393-4.5872-4.4699-4.9764s-5.7678 1.6936-7.0979 3.5747c-1.3301 1.8811-1.5886 4.1773-1.7162 4.7334-0.11987 0.522-0.1624 0.75207-0.49622 0.75207-0.40858 0-0.32222-0.4988-0.29967-0.66507 0.043178-0.34349 0.29644-3.5303 1.0311-5.1755 1.4378-3.2222 2.0758-4.4196 2.0758-6.7738 0-2.6029-2.9148-5.1897-3.9369-6.9903-0.58967-1.0388-0.83262-1.1471-0.93767-1.1471z" fill="#fff"/>
</g>
</g>
</svg>
