<?xml version="1.0" encoding="UTF-8"?>
<svg width="80px" height="80px" viewBox="0 0 80 80" version="1.1" xmlns="http://www.w3.org/2000/svg" xmlns:xlink="http://www.w3.org/1999/xlink">
    <title>1 - Fundamentals/1 - Logos/Clubs/Color/Dortmund BVB</title>
    <g id="1---Fundamentals/1---Logos/Clubs/Color/Dortmund-BVB" stroke="none" stroke-width="1" fill="none" fill-rule="evenodd">
        <rect id="Area" x="0" y="0" width="80" height="80"></rect>
        <g id="Dortmund" transform="translate(11.000000, 11.000000)">
            <path d="M0,29 C0,12.9839055 12.9832527,0 28.9996736,0 C45.0164209,0 58,12.9839055 58,29 C58,45.0167473 45.0164209,58.0003264 28.9996736,58.0003264 C12.9832527,58.0003264 0,45.0167473 0,29" id="Fill-1" fill="#FFD900"></path>
            <path d="M1.39369724,29 C1.39369724,13.7535397 13.7532133,1.39369724 28.9996736,1.39369724 C44.2464603,1.39369724 56.6063028,13.7535397 56.6063028,29 C56.6063028,44.2471131 44.2464603,56.6066292 28.9996736,56.6066292 C13.7532133,56.6066292 1.39369724,44.2471131 1.39369724,29" id="Fill-2" fill="#000000"></path>
            <path d="M2.92676421,29 C2.92676421,14.6002026 14.5998762,2.92676421 28.9996736,2.92676421 C43.4001238,2.92676421 55.0732358,14.6002026 55.0732358,29 C55.0732358,43.4004502 43.4001238,55.0735622 28.9996736,55.0735622 C14.5998762,55.0735622 2.92676421,43.4004502 2.92676421,29" id="Fill-3" fill="#FFD900"></path>
            <path d="M33.2662802,51.2162521 C31.3408891,51.2162521 29.9393585,49.7592347 29.9393585,48.0949578 C29.9393585,47.8517952 29.9217333,47.7440855 29.933157,47.5694654 L31.7495329,47.5694654 C32.2756781,47.5694654 32.1911424,48.2823073 32.1911424,48.2823073 C32.1911424,48.8309736 32.7845245,49.0796849 33.2316826,49.091435 C33.775453,49.1067755 34.2186944,48.6060889 34.2186944,48.0574226 L34.2105346,46.9937085 C33.8632527,47.1823635 33.1742375,47.1787732 33.1742375,47.1787732 C31.528565,47.133731 29.9214069,45.7139223 29.9214069,43.9585819 L29.9214069,43.1765447 C29.9214069,41.4208779 31.4185706,40.0392572 33.1742375,40.0392572 L33.2463703,40.0392572 C35.0017107,40.0392572 36.3650535,41.4610242 36.3650535,43.2170174 L36.3650535,48.0123804 C36.3650535,49.8189645 35.0855937,51.1976477 33.2662802,51.2162521" id="Fill-4" fill="#000000"></path>
            <path d="M33.1941474,42.3073607 L33.2251548,42.3073607 C33.773821,42.3073607 34.2186944,42.7519077 34.2186944,43.300574 L34.2186944,43.9301857 C34.2186944,44.478852 33.773821,44.923399 33.2251548,44.923399 L33.1941474,44.923399 C32.6454811,44.923399 32.2009342,44.478852 32.2009342,43.9301857 L32.2009342,43.300574 C32.2009342,42.7519077 32.6454811,42.3073607 33.1941474,42.3073607" id="Fill-5" fill="#FFD900"></path>
            <path d="M13.3723129,35.7837479 L13.3723129,30.6975689 L16.3369387,30.6975689 C18.7901069,30.6975689 19.6661452,35.153157 16.4772876,35.7837479 L13.3723129,35.7837479 Z M13.3723129,26.8242656 L13.3723129,21.9698255 L16.7224086,21.9698255 C18.8952054,21.9698255 19.341058,26.1571187 16.8529657,26.8242656 L13.3723129,26.8242656 Z M9.37661227,17.9424648 L9.37661227,39.5911199 L16.1969162,39.5983005 C21.6989195,39.5983005 24.4925155,32.9219358 20.6668655,28.8067755 C20.6668655,28.8067755 20.6551154,28.7950253 20.6551154,28.774789 C20.6551154,28.7545526 20.6825324,28.7333371 20.6825324,28.7333371 C23.8619246,25.1420371 22.530242,18.8341699 16.6173101,17.9424648 L9.37661227,17.9424648 L9.37661227,17.9424648 Z" id="Fill-6" fill="#000000"></path>
            <path d="M41.5445808,35.7837479 L41.5445808,30.6975689 L44.4892966,30.6975689 C46.9424648,30.6975689 47.8185031,35.153157 44.6296455,35.7837479 L41.5445808,35.7837479 Z M41.5445808,26.8242656 L41.5445808,21.9698255 L44.8747665,21.9698255 C47.0475633,21.9698255 47.4934159,26.1571187 45.0053236,26.8242656 L41.5445808,26.8242656 Z M37.5289702,17.9424648 L37.5289702,39.5911199 L44.3492741,39.5983005 C49.8512774,39.5983005 52.6451998,32.9219358 48.818897,28.8067755 C48.818897,28.8067755 48.8074733,28.7950253 48.8074733,28.774789 C48.8074733,28.7545526 48.8348903,28.7333371 48.8348903,28.7333371 C52.0139561,25.1420371 50.6825999,18.8341699 44.769668,17.9424648 L37.5289702,17.9424648 L37.5289702,17.9424648 Z" id="Fill-7" fill="#000000"></path>
            <path d="M24.7268655,40.0539449 L24.7989983,40.0539449 C26.5543388,40.0539449 27.9774114,41.4770174 27.9774114,43.2330107 L27.9774114,48.0332696 C27.9774114,49.7889364 26.5543388,51.2123354 24.7989983,51.2123354 L24.7268655,51.2123354 C22.9711986,51.2123354 21.5477997,49.7889364 21.5477997,48.0332696 L21.5477997,43.2330107 C21.5477997,41.4770174 22.9711986,40.0539449 24.7268655,40.0539449" id="Fill-8" fill="#000000"></path>
            <path d="M24.7467755,42.3341249 L24.778762,42.3341249 C25.3277546,42.3341249 25.7723016,42.7789983 25.7723016,43.3276646 L25.7723016,48.0933258 C25.7723016,48.6419921 25.3277546,49.0868655 24.778762,49.0868655 L24.7467755,49.0868655 C24.1981092,49.0868655 23.7535622,48.6419921 23.7535622,48.0933258 L23.7535622,43.3276646 C23.7535622,42.7789983 24.1981092,42.3341249 24.7467755,42.3341249" id="Fill-9" fill="#FFD900"></path>
            <polyline id="Fill-10" fill="#000000" points="20.3574451 7.12907147 27.4512662 29.0763759 30.5200113 29.0763759 37.5289702 7.12907147 33.2362521 7.12907147 28.9781317 21.7779066 24.7487338 7.12907147 20.3574451 7.12907147"></polyline>
        </g>
    </g>
</svg>