<?xml version="1.0" encoding="UTF-8"?>
<svg version="1.1" viewBox="0 0 80 80" xmlns="http://www.w3.org/2000/svg">
<title>1 – Fundamentals/Logos/Clubs/Heidenheim FCH</title>
<g fill="none" fill-rule="evenodd">
<rect width="80" height="80"/>
<g transform="translate(16 11)" fill-rule="nonzero">
<path id="Path" d="m23.483 58c12.947 0 23.485-10.544 23.485-23.507v-32.508c-0.0035258-0.7906-0.62138-1.4418-1.41-1.4861-7.1936-0.32931-14.618-0.49944-22.075-0.49944-7.4563 0-14.881 0.17013-22.076 0.49944-0.78819 0.044351-1.4053 0.69591-1.4074 1.4861v32.508c0 12.962 10.533 23.507 23.483 23.507z" fill="#B2B2B2"/>
<path id="Path" d="m23.483 56.781c12.277 0 22.266-9.9973 22.266-22.288v-32.508l-0.0032191 0.0058c3.425e-4 -0.073034-0.028403-0.14319-0.079876-0.19496-0.051474-0.051764-0.12143-0.080865-0.1944-0.080864-7.164-0.32802-14.56-0.49816-21.989-0.49816s-14.824 0.17013-21.99 0.49816c-0.072913 1.7072e-4 -0.14277 0.029326-0.19421 0.081053-0.051436 0.051727-0.080067 0.12179-0.080067 0.19477v-0.0058 32.508c-0.0025746 12.293 9.984 22.288 22.264 22.288z" fill="#00205B"/>
<path id="Path" d="m42.568 34.643c0 10.585-8.5733 19.168-19.151 19.168s-19.149-8.5834-19.149-19.168 8.5727-19.169 19.149-19.169 19.151 8.5834 19.151 19.169z" fill="#DA291C"/>
<path id="Shape" d="m37.755 47.763c0.03026-0.032867 0.059877-0.064444 0.091425-0.097956 0.07726-0.088933 0.15903-0.17658 0.23629-0.26551 0.018027-0.018689 0.036055-0.039311 0.052794-0.058644 0.089493-0.10311 0.18156-0.20816 0.26977-0.31191 6.272e-4 -0.0025396 6.272e-4 -0.0051938 0-0.0077334 0.71851-0.85465 1.3617-1.77 1.9225-2.7357 0.55584-0.96221 1.0297-1.9696 1.4164-3.0115 0-0.0064445 0.0051506-0.016756 0.007726-0.026422 0.047-0.1218 0.088849-0.24618 0.13327-0.36927 0.0090137-0.030933 0.020603-0.064444 0.029616-0.091511 0.035411-0.10698 0.072753-0.21524 0.10559-0.32222 0.015452-0.047689 0.03026-0.096667 0.047-0.14436 0.027041-0.091511 0.05537-0.18431 0.083055-0.27582 0.018027-0.064444 0.037342-0.12889 0.056014-0.19333 0.021247-0.077333 0.043781-0.1566 0.064384-0.23393 0.020603-0.077333 0.041849-0.15918 0.064384-0.23909 0.015452-0.064444 0.032192-0.12889 0.047644-0.19333 0.023822-0.094733 0.046356-0.18882 0.067603-0.28356 0.012233-0.048333 0.023178-0.097311 0.032836-0.14564 0.023822-0.11213 0.047-0.22169 0.070178-0.33382 0.0064384-0.031578 0.012877-0.060578 0.018671-0.091511 0.025753-0.12889 0.049575-0.25778 0.073397-0.38667 0-0.0090222 0-0.016111 0.0032192-0.024489 0.18986-1.0946 0.28571-2.2034 0.28651-3.3144 0-1.1045-0.094878-2.2069-0.28393-3.295 0-0.0174-0.0057945-0.030933-0.0090137-0.0464-0.020603-0.12438-0.044425-0.24618-0.067603-0.36991-0.0070822-0.038022-0.012877-0.074111-0.021247-0.11213-0.023178-0.1044-0.043781-0.21009-0.067603-0.31384-0.012233-0.055422-0.023178-0.10956-0.035411-0.16498-0.021246-0.088289-0.043781-0.17722-0.064384-0.26551-0.017384-0.0696-0.032836-0.13984-0.050863-0.21009-0.018027-0.070244-0.03863-0.14629-0.064384-0.21976-0.020603-0.084422-0.043781-0.17013-0.067603-0.25327-0.014808-0.058644-0.032192-0.116-0.050219-0.17464-0.028973-0.097956-0.059233-0.1972-0.086274-0.29322-0.01352-0.045756-0.028973-0.087644-0.041206-0.12889-0.036055-0.11213-0.073397-0.2262-0.11138-0.33962-0.0090137-0.0232-0.018027-0.047044-0.027041-0.071533-0.044425-0.12889-0.088849-0.25778-0.13842-0.38667v-0.0058c-0.38666-1.0485-0.86248-2.0618-1.4222-3.0289-0.63307-1.092-1.3719-2.119-2.2058-3.0663-0.011589-0.015467-0.026397-0.030933-0.03863-0.044467-0.082411-0.094733-0.16482-0.18689-0.25045-0.2784-0.026397-0.029-0.053438-0.058-0.077904-0.085711-0.075973-0.081844-0.14937-0.15853-0.22405-0.23716-0.040562-0.039956-0.075973-0.078622-0.1146-0.11793-0.064384-0.064444-0.12877-0.13276-0.1983-0.19784-0.049575-0.049622-0.099151-0.099889-0.15001-0.14951-0.050863-0.049622-0.11267-0.10956-0.16933-0.1624l-0.188-0.17464c-0.044425-0.042533-0.091425-0.083778-0.13842-0.12889-0.073397-0.064444-0.15066-0.13404-0.22405-0.20107l-0.099151-0.088289c-0.088849-0.077333-0.18027-0.15402-0.2717-0.23071l-0.053438-0.044467c-0.84944-0.70225-1.7568-1.3311-2.7125-1.8798-0.96254-0.55392-1.9711-1.0235-3.0144-1.4036-0.011589-0.0051555-0.02511-0.0096666-0.03863-0.014822-0.11911-0.043822-0.23951-0.085067-0.3599-0.12502-0.036055-0.013533-0.06889-0.025778-0.10366-0.037378-0.10366-0.035444-0.20796-0.067667-0.3129-0.10118-0.050863-0.016111-0.10366-0.034156-0.15645-0.048978-0.088206-0.027067-0.17705-0.053489-0.26848-0.079911-0.067603-0.020622-0.13521-0.041244-0.20152-0.059289l-0.22921-0.064444-0.24595-0.064444-0.188-0.044467c-0.095288-0.023844-0.19315-0.047689-0.29037-0.070889-0.048932-0.0083778-0.094-0.018044-0.141-0.029-0.11525-0.023844-0.22727-0.048333-0.3393-0.072178-0.03026-0.0051555-0.064384-0.010956-0.088849-0.016756-0.13263-0.027067-0.26268-0.050267-0.39532-0.074111-0.0068447 7.939e-4 -0.013758 7.939e-4 -0.020603 0-2.2005-0.3787-4.4493-0.37979-6.6502-0.0032223l-0.03863 0.0083778c-0.12877 0.021267-0.25238 0.044467-0.37858 0.068311-0.034767 0.0064445-0.070178 0.014822-0.10623 0.020622-0.10688 0.0232-0.21504 0.044467-0.32192 0.068311l-0.1616 0.0348c-0.092068 0.020622-0.18285 0.041889-0.27427 0.064444-0.068247 0.015467-0.13585 0.032867-0.20345 0.050267-0.067603 0.0174-0.15388 0.038667-0.22727 0.059289-0.083055 0.020622-0.16547 0.044467-0.24788 0.064444l-0.18349 0.055422c-0.094644 0.027711-0.19315 0.054133-0.28908 0.083778l-0.13585 0.044467-0.33093 0.10569c-0.026397 0.010956-0.056014 0.021267-0.08048 0.029-0.12877 0.044467-0.25753 0.088933-0.3863 0.13598-0.003863 0-0.0070822 0.0038667-0.012877 0.0038667-1.0495 0.38409-2.0642 0.85734-3.0331 1.4146-0.96436 0.55206-1.879 1.1869-2.7337 1.8972-0.0090137 0.0064445-0.018671 0.015467-0.026397 0.020622-0.10044 0.083133-0.1983 0.16756-0.29359 0.25133l-0.076616 0.068311c-0.083055 0.072178-0.16547 0.14564-0.24466 0.21976-0.041205 0.0348-0.080479 0.070889-0.11911 0.10827-0.070822 0.064444-0.13842 0.12889-0.20603 0.19333-0.050863 0.047689-0.10108 0.094733-0.15323 0.145-0.052151 0.050267-0.11203 0.11149-0.16675 0.16498s-0.11975 0.12051-0.17963 0.18044c-0.044425 0.045111-0.088849 0.092156-0.13327 0.13856-0.069534 0.072178-0.13778 0.14242-0.20603 0.21589-0.031548 0.036089-0.064384 0.070889-0.096575 0.10698-0.077904 0.083133-0.15452 0.17013-0.23307 0.25778-0.018671 0.0232-0.03863 0.044467-0.057301 0.067667-0.085845 0.10053-0.17298 0.20193-0.2614 0.30418-0.0045068 0.0058-0.010301 0.0096667-0.014808 0.015467-1.5259 1.8221-2.7044 3.9093-3.4767 6.1577-0.0064384 0.021267-0.015452 0.043178-0.023178 0.064444-0.039274 0.11536-0.074685 0.23071-0.11267 0.34542-0.014164 0.041244-0.026397 0.079911-0.037986 0.11987-0.032836 0.099244-0.064384 0.20236-0.091425 0.30289-0.016096 0.056067-0.032192 0.11149-0.050219 0.16562-0.023822 0.085711-0.045712 0.17464-0.06889 0.26293-0.019959 0.0696-0.037986 0.13856-0.056014 0.21009-0.018027 0.071533-0.037342 0.14758-0.053438 0.21847-0.022534 0.085711-0.043137 0.17271-0.064384 0.25778-0.012877 0.058644-0.02511 0.11793-0.03863 0.17593-0.021247 0.10118-0.043781 0.20236-0.064384 0.30224-0.0083699 0.041889-0.018027 0.085711-0.025753 0.12438-0.023822 0.12051-0.045068 0.23973-0.064384 0.35702 0 0.021267-0.007726 0.039311-0.010945 0.064444-0.37729 2.1785-0.37729 4.4058 0 6.5843 0 0.015467 0.0051507 0.029 0.007726 0.041889 0.020603 0.12889 0.045068 0.25069 0.068247 0.37636 0.0090137 0.034156 0.014808 0.0696 0.020603 0.1044 0.023178 0.10698 0.046356 0.21396 0.068247 0.32222 0.012233 0.055422 0.022534 0.10633 0.035411 0.15918 0.020603 0.092156 0.043781 0.18302 0.064384 0.27196 0.016096 0.070244 0.032192 0.13598 0.049575 0.20429 0.017384 0.068311 0.041205 0.15273 0.064384 0.22878 0.023178 0.076044 0.042493 0.16111 0.064384 0.2436 0.018027 0.064444 0.035411 0.12373 0.05537 0.18367 0.027041 0.096022 0.053438 0.19333 0.08563 0.28613 0.012233 0.045111 0.027041 0.091511 0.041849 0.13598 0.035411 0.10956 0.070822 0.21911 0.10881 0.32802 0.0096575 0.029644 0.018671 0.058 0.028973 0.085711 0.044425 0.12889 0.088849 0.25133 0.13327 0.37829 0.0032955 0.0057667 0.0060955 0.011803 0.0083699 0.018044 0.77055 2.0907 1.8962 4.0324 3.3273 5.7394 0.0057399 0.0077033 0.011977 0.015023 0.018671 0.021911 0.084986 0.10247 0.17062 0.20107 0.25753 0.30096 0.019315 0.0232 0.041849 0.047044 0.064384 0.071533 0.074685 0.085067 0.15066 0.16884 0.22663 0.25069 0.034123 0.039311 0.069534 0.076689 0.10173 0.11278l0.20281 0.21138c0.045712 0.047044 0.089493 0.096022 0.13842 0.14307 0.057301 0.059289 0.11525 0.11729 0.17255 0.17464 0.057301 0.057356 0.11525 0.11471 0.17448 0.17142l0.14422 0.13856c0.070822 0.064444 0.141 0.13276 0.21182 0.19784 0.036055 0.035444 0.076616 0.070889 0.1146 0.10311 0.081123 0.077333 0.16611 0.15144 0.2511 0.22684 0.024466 0.020622 0.048288 0.042533 0.074041 0.064444 0.10044 0.085711 0.1983 0.17142 0.29938 0.25391 0.0072561 0.0073857 0.015 0.014275 0.023178 0.020622 1.716 1.4207 3.6623 2.5369 5.7546 3.3002 0.010301 0.0051556 0.02189 0.0083778 0.033479 0.014822 0.12104 0.043178 0.24208 0.084422 0.36312 0.12889l0.10044 0.035444 0.31612 0.10247c0.051507 0.015467 0.10044 0.031578 0.15323 0.045756 0.088849 0.029644 0.18027 0.055422 0.2717 0.081844 0.064384 0.020622 0.13263 0.039311 0.20088 0.056711s0.15001 0.041889 0.22727 0.064444c0.07726 0.022556 0.16418 0.045756 0.24466 0.064444l0.188 0.047044c0.098507 0.023844 0.19315 0.047044 0.2923 0.064444 0.047 0.0116 0.092712 0.021267 0.14229 0.030289 0.1101 0.026422 0.22405 0.050267 0.33737 0.072178 0.030904 0.0070889 0.058589 0.010311 0.090137 0.018044 0.12877 0.024489 0.26268 0.050267 0.39338 0.073467 0.0066386 6.194e-4 0.01332 6.194e-4 0.019959 0 2.352 0.40739 4.7586 0.38053 7.1009-0.079267 0.020603-0.0032222 0.042493-0.0090222 0.064384-0.0116 0.1204-0.023844 0.24273-0.050911 0.3599-0.0754 0.041849-0.010956 0.081767-0.0174 0.1204-0.029 0.10366-0.0232 0.20796-0.047044 0.31097-0.071533l0.16804-0.0406c0.088206-0.021911 0.17705-0.047044 0.26526-0.070244 0.070822-0.018044 0.13907-0.038667 0.20925-0.056711 0.070178-0.018044 0.14808-0.041889 0.22212-0.064444 0.074041-0.022556 0.16804-0.047689 0.24981-0.074111 0.057301-0.018044 0.11589-0.036089 0.17577-0.056067 0.096575-0.030289 0.19315-0.060578 0.29166-0.094089 0.041849-0.013533 0.081767-0.030289 0.12104-0.042533 0.11718-0.038667 0.23049-0.079267 0.34252-0.12051l0.061164-0.021911c2.0789-0.76291 4.0129-1.8743 5.7192-3.2867 0.014808-0.0116 0.025753-0.0232 0.041206-0.033511 0.096575-0.079267 0.18864-0.16047 0.28393-0.24102 0.028973-0.026422 0.060521-0.051556 0.090781-0.077333 0.079836-0.070889 0.15645-0.14178 0.23564-0.21202 0.041205-0.039311 0.08563-0.077978 0.12877-0.11793 0.068247-0.064444 0.13327-0.1218 0.1983-0.18431 0.053438-0.049622 0.10623-0.10118 0.15903-0.15273 0.052794-0.051556 0.10623-0.10504 0.15967-0.15918 0.064384-0.060578 0.12877-0.12309 0.18929-0.18689 0.041205-0.043822 0.082411-0.087 0.12877-0.12889 0.064384-0.079267 0.13778-0.15273 0.20796-0.22878zm-8.6216 4.8662c-0.60585 0.11296-1.2174-0.16644-1.5291-0.69858-0.12897-0.22198-0.1957-0.47467-0.19315-0.73144v-0.16304c0.0022715-0.011295 2.022e-4 -0.023032-0.0057946-0.032867-0.017818-0.029323-0.055469-0.039524-0.08563-0.0232-0.0074473 0.0049323-0.013624 0.011557-0.018027 0.019333l-0.059233 0.080556c-0.32192 0.39569-1.1274 0.81522-2.4562 1.0659-0.032192 0.0058-0.064384 0.0096666-0.094 0.016111-0.0042783 4.898e-4 -0.0085985 4.898e-4 -0.012877 0-0.14121 0.02363-0.28565 0.046185-0.4333 0.067667-0.028973 0.0051556-0.058589 0.0090223-0.088849 0.012244-0.58551 0.085028-1.1758 0.13303-1.7673 0.14371-5.8216 0.077978-9.8571-2.2781-12.325-4.4318-3.5595-3.5289-5.5609-8.3363-5.5582-13.351 0.002765-1.3939 0.15996-2.7832 0.46871-4.1425 0.14549-0.40832 0.46515-0.73054 0.87204-0.87905 0.40689-0.14851 0.85873-0.10787 1.2327 0.11087l0.14164 0.085067c0.0099208 0.0063173 0.021151 0.010285 0.032836 0.0116 0.035558 0 0.064384-0.028853 0.064384-0.064444-7.1892e-4 -0.0086124-0.0026704-0.017077-0.0057945-0.025133l-0.043137-0.0928c-0.188-0.47753-0.14679-1.3798 0.29874-2.6506 0.012233-0.030289 0.021247-0.059289 0.032836-0.091511 0 0 0-0.0090222 0.0057945-0.012244 0.050219-0.13211 0.10044-0.26809 0.15516-0.40471 0.012233-0.029 0.023822-0.056067 0.034123-0.085067 0.22035-0.54633 0.47407-1.0786 0.75973-1.5937 2.8438-5.055 6.9122-7.357 10.017-8.4081 6.2786-1.6911 12.985-0.044964 17.77 4.3616 0.39991 0.46613 0.46139 1.1345 0.15323 1.6659-0.12904 0.22216-0.31597 0.40504-0.54082 0.52909l-0.14229 0.082489c-0.010443 0.0041921-0.019251 0.011652-0.02511 0.021267-0.016424 0.030026-0.0065278 0.067666 0.022534 0.085711 0.007855 0.0034473 0.016057 0.0060399 0.024466 0.0077333l0.10108 0.0090222c0.50284 0.079267 1.2735 0.56389 2.1562 1.5847 0.020603 0.022556 0.039918 0.048978 0.061164 0.072178 0.003863 0 0.0064383 0.0083778 0.0090137 0.010956 0.088849 0.10762 0.18027 0.22169 0.27427 0.33833 0.018027 0.0232 0.036055 0.047044 0.056658 0.070244 0.36478 0.46323 0.70064 0.94856 1.0057 1.4532 2.9784 4.9764 2.9462 9.6357 2.3082 12.836-1.6894 6.2685-6.4752 11.23-12.675 13.14z" fill="#fff"/>
<polygon id="Path" points="6.2407 7.1237 6.137 4.4048 5.5647 4.6568 5.4462 4.0484 6.3025 3.7262 6.7725 3.7081 6.9013 7.0947" fill="#fff"/>
<path id="Path" d="m8.4342 6.6919c0.0050586 0.10848-0.033373 0.21449-0.10676 0.29447-0.073383 0.079987-0.17564 0.12733-0.28405 0.13151-0.22686 0.0080081-0.41725-0.16958-0.42525-0.39666-0.0080006-0.22707 0.16942-0.41765 0.39628-0.42566 0.10826-0.0034686 0.21343 0.036409 0.29222 0.1108 0.078792 0.074391 0.1247 0.17716 0.12756 0.28553z" fill="#fff"/>
<polygon id="Path" points="10.752 4.1335 10.778 5.008 11.873 4.9783 11.888 5.5158 10.793 5.5435 10.833 6.9697 10.18 6.9903 10.086 3.5986 11.898 3.549 11.914 4.1025" fill="#fff"/>
<path id="Path" d="m13.833 6.9432c-0.79385 0.016756-1.1776-0.348-1.1898-0.94024l-0.034767-1.6923 0.64384-0.014822 0.032836 1.5467c0.0083699 0.40213 0.20216 0.56776 0.56915 0.56067 0.39596-0.0083778 0.54855-0.23264 0.53953-0.61029l-0.031548-1.5215 0.63482-0.014822 0.037342 1.6079c0.014164 0.58-0.34188 1.0582-1.2014 1.0788z" fill="#fff"/>
<path id="Path" d="m16.371 6.9052c-0.17314 0.0021611-0.34596-0.01557-0.51507-0.052844l0.014808-0.57356c0.17776 0.063401 0.3657 0.093335 0.55434 0.088289 0.21568 0 0.39596-0.10633 0.39338-0.30353-0.0070822-0.39633-1.052-0.16047-1.0643-1.0118-0.0083699-0.51556 0.37342-0.86033 1.09-0.87129 0.15977 8.8819e-4 0.31933 0.011866 0.47773 0.032867l-0.010945 0.54327c-0.15844-0.040265-0.32135-0.060188-0.48481-0.059289-0.27492 0.0038667-0.3863 0.11149-0.3863 0.2726 0.0045069 0.37249 1.072 0.20042 1.0849 1.004 0.0096576 0.54713-0.42686 0.92156-1.1538 0.93122z" fill="#fff"/>
<path id="Path" d="m18.716 6.8756c-0.17186-0.0012758-0.34315-0.020062-0.51121-0.056067l0.018027-0.57356c0.17663 0.064532 0.36379 0.095353 0.55177 0.090867 0.21568 0 0.39596-0.10504 0.39274-0.30031 0-0.39633-1.0488-0.16562-1.0565-1.0195-0.0057946-0.51556 0.37729-0.85711 1.0945-0.86549 0.15899 0.0028651 0.31766 0.015347 0.47515 0.037378l-0.011589 0.54133c-0.1582-0.040963-0.32077-0.062602-0.48416-0.064444-0.27749 0.0051556-0.38952 0.11149-0.38952 0.27196 0.0051507 0.37184 1.0733 0.20429 1.0804 1.0073 0.0057945 0.551-0.43137 0.92349-1.1595 0.93058z" fill="#fff"/>
<path id="Shape" d="m21.568 6.8079c-0.18864 0-0.53181-0.0070889-0.93292-0.0045111l-0.012877-2.6145c0.2659 0 0.69341-0.018044 1.0411-0.020622 0.70242 0 0.98893 0.23844 0.98958 0.6496 0.0050453 0.25793-0.15555 0.4901-0.39853 0.57613v0.0051556c0.29166 0.077978 0.43716 0.29902 0.43974 0.58 6.427e-4 0.39376-0.26848 0.82747-1.1261 0.82876zm-0.028973-2.184c-0.079836 0-0.18478 0.0051556-0.26977 0.0051556l0.0032192 0.62447h0.18542c0.30518 0 0.51056-0.11213 0.50863-0.33833-0.0012877-0.17336-0.10173-0.29451-0.42879-0.29129h0.0012876zm-0.045068 1.0311c-0.056014 0-0.15452 0-0.22148 0.0064444l0.0032192 0.66764c0.091944 0.0099211 0.18437 0.014654 0.27685 0.014178 0.31677 0 0.46034-0.14758 0.45841-0.36347-0.0012877-0.22749-0.19315-0.32158-0.51829-0.32158l0.0012877-0.0032222z" fill="#fff"/>
<path id="Shape" d="m25.095 6.7982-0.15967-0.45884h-1.0063l-0.16804 0.45756h-0.65092l0.96962-2.6139h0.7726l0.95803 2.6152h-0.7153zm-0.5376-1.5467c-0.044425-0.12116-0.094-0.27196-0.12877-0.38667-0.032192 0.11471-0.070822 0.25069-0.11525 0.37184l-0.23371 0.63413h0.70242l-0.2247-0.61931z" fill="#fff"/>
<polygon id="Path" points="26.409 6.8034 26.428 4.1915 27.076 4.1953 27.058 6.2369 27.908 6.2427 27.902 6.8163" fill="#fff"/>
<polygon id="Path" points="28.525 6.8214 28.557 4.2102 29.201 4.2192 29.178 6.2582 30.025 6.2692 30.016 6.8401" fill="#fff"/>
<path id="Path" d="m32.006 6.92c-1.1847-0.020622-1.5497-0.81844-1.5355-1.6607 0.018027-1.0762 0.59619-1.8199 1.7293-1.7993 0.24234 0.0050391 0.48309 0.040547 0.71659 0.10569l-0.08048 0.59096c-0.22094-0.070274-0.45071-0.10889-0.68247-0.11471-0.63096-0.0096667-0.9503 0.46142-0.96575 1.1194-0.013521 0.7366 0.28651 1.16 0.96897 1.1677 0.22581 1.031e-4 0.4495-0.043669 0.65864-0.12889l0.064384 0.58c-0.28114 0.096092-0.57662 0.14339-0.87368 0.13984z" fill="#fff"/>
<polygon id="Path" points="33.608 6.9078 33.673 4.2952 34.316 4.3107 34.269 6.3491 35.117 6.3703 35.102 6.9432" fill="#fff"/>
<path id="Path" d="m36.823 7.0348c-0.79192-0.0232-1.1589-0.40407-1.1389-0.99824l0.048932-1.6897 0.64384 0.0174-0.047 1.5467c-0.0096575 0.40213 0.17384 0.58 0.54018 0.58902 0.39789 0.010956 0.55949-0.20493 0.56915-0.58l0.047644-1.5235 0.63482 0.018044-0.047 1.604c-0.014808 0.58193-0.39274 1.0434-1.2516 1.0163z" fill="#fff"/>
<path id="Shape" d="m39.888 7.1031c-0.18929-0.0083778-0.53116-0.029644-0.93356-0.044467l0.097863-2.6119c0.26526 0.0116 0.69019 0.0116 1.0379 0.0232 0.70307 0.026422 0.97799 0.27776 0.96575 0.68827-0.0069019 0.25735-0.17672 0.48175-0.42236 0.55809v0.0064444c0.26508 0.071462 0.44069 0.32304 0.41656 0.59676-0.018027 0.39376-0.30453 0.81522-1.1621 0.78364zm-0.027685-1.1529c-0.05537 0-0.15645-0.0051556-0.22084 0l-0.027041 0.66764c0.091748 0.013378 0.18418 0.021554 0.27685 0.024489 0.31677 0.0116 0.46807-0.12889 0.47322-0.34284 0.0064384-0.23393-0.17705-0.3364-0.50219-0.34929zm0.088849-1.0311c-0.081767 0-0.18607 0-0.2717-0.0045111l-0.023178 0.62253c0.074041 0.0070889 0.15066 0.0096667 0.18542 0.012244 0.30711 0.010956 0.51507-0.094089 0.52279-0.319 0.0064384-0.17593-0.088206-0.29902-0.41334-0.31191v6.4444e-4z" fill="#fff"/>
<polygon id="Path" points="5.81 12.536 5.7456 11.065 4.3137 11.124 4.3781 12.596 3.7233 12.622 3.5849 9.2336 4.2345 9.2065 4.2912 10.56 5.7263 10.504 5.6703 9.1511 6.3225 9.1247 6.4609 12.511" fill="#fff"/>
<polygon id="Path" points="7.3301 12.478 7.2412 9.8658 8.8463 9.8117 8.8643 10.318 7.9057 10.352 7.9237 10.874 8.836 10.844 8.8534 11.334 7.9411 11.367 7.9604 11.939 8.9178 11.905 8.9358 12.42" fill="#fff"/>
<polygon id="Path" points="9.776 12.398 9.6968 9.7865 10.346 9.7678 10.422 12.377" fill="#fff"/>
<path id="Shape" d="m12.233 12.344c-0.35153 0.0096667-0.63418 0.0045111-0.87368 0l-0.064384-2.6061c0.23564-0.010311 0.69663-0.032867 1.0179-0.039311 0.84793-0.022556 1.4197 0.32544 1.4415 1.2393 0.023822 0.95184-0.6419 1.3856-1.5214 1.4062zm0.027685-2.1151c-0.10205 0.0011313-0.20395 0.0082323-0.30518 0.021267l0.036055 1.5428c0.097148 0.009146 0.19479 0.011944 0.2923 0.0083778 0.46614-0.012244 0.79707-0.28678 0.78419-0.81329-0.010945-0.51298-0.28264-0.77333-0.80479-0.75916h-0.0025754z" fill="#fff"/>
<polygon id="Path" points="14.479 12.279 14.432 9.6667 16.037 9.639 16.047 10.147 15.088 10.162 15.097 10.686 16.011 10.667 16.021 11.16 15.106 11.179 15.117 11.75 16.076 11.731 16.086 12.251" fill="#fff"/>
<path id="Path" d="m18.567 12.215-0.79707-1.2657c-0.092724-0.15304-0.17635-0.31142-0.25045-0.47431h-0.0070822c0.0096575 0.12889 0.017384 0.25778 0.018027 0.46013l0.01674 1.2889-0.62259 0.0083778-0.031548-2.6119 0.86982-0.0096667 0.7726 1.2354c0.10327 0.15914 0.19597 0.3249 0.27749 0.49622h0.0057945c-0.014164-0.1566-0.020603-0.37313-0.023822-0.64444l-0.018027-1.0956 0.62838-0.0070889 0.027685 2.6126-0.86596 0.0070889z" fill="#fff"/>
<polygon id="Path" points="22.127 12.192 22.122 11.136 21.012 11.142 21.017 12.194 20.374 12.2 20.363 9.5848 21.006 9.5848 21.012 10.584 22.122 10.578 22.116 9.579 22.763 9.579 22.774 12.19" fill="#fff"/>
<polygon id="Path" points="23.712 12.19 23.72 9.5764 25.325 9.5764 25.325 10.085 24.365 10.085 24.365 10.606 25.278 10.606 25.278 11.099 24.363 11.099 24.363 11.673 25.321 11.673 25.321 12.188" fill="#fff"/>
<polygon id="Path" points="26.155 12.197 26.172 9.5848 26.821 9.588 26.804 12.2" fill="#fff"/>
<path id="Path" d="m30.462 12.244-0.15903-1.258c-0.027685-0.21976-0.050863-0.4234-0.064384-0.57356h-0.0057946c-0.03863 0.16562-0.08563 0.34542-0.13649 0.51556l-0.4391 1.305-0.67345-0.0083778-0.3599-1.2167c-0.061778-0.19998-0.11314-0.40304-0.15388-0.60836h-0.0051507c-0.012877 0.19333-0.033479 0.38667-0.064384 0.59676l-0.17255 1.2186-0.64384-0.0083777 0.43974-2.6081 0.81381 0.010956 0.40819 1.3308c0.048913 0.16271 0.089103 0.32793 0.1204 0.49493h0.0057945c0.030766-0.16327 0.073811-0.32398 0.12877-0.48076l0.46034-1.3295 0.82668 0.0090222 0.36312 2.6177-0.6889-0.0077334z" fill="#fff"/>
<polygon id="Path" points="33.532 12.301 33.596 9.579 33.006 9.7956 32.923 9.1788 33.801 8.9146 34.271 8.9256 34.197 12.315" fill="#fff"/>
<path id="Shape" d="m36.016 12.421c-0.71337-0.018044-1.1209-0.38667-1.1061-0.92413 0.012233-0.38989 0.30582-0.65862 0.63804-0.85647-0.34316-0.20493-0.54082-0.46722-0.52859-0.80749 0.014808-0.58773 0.51507-0.94604 1.1982-0.92736 0.65285 0.018044 1.054 0.38667 1.0424 0.86291-0.012233 0.3828-0.27814 0.6206-0.6007 0.82296 0.35797 0.21653 0.63482 0.48591 0.6213 0.8874-0.018027 0.64767-0.60199 0.96344-1.2645 0.94218zm0.041206-1.5093c-0.25753 0.15338-0.46356 0.30289-0.47193 0.54327-0.0083699 0.25778 0.18414 0.4292 0.50541 0.43693 0.28908 0.0083778 0.51507-0.13533 0.52279-0.38667 0.0083699-0.26551-0.25432-0.42856-0.55885-0.59353h0.0025754zm0.095288-1.4906c-0.29874-0.0083778-0.47515 0.14307-0.48159 0.36476-0.0064384 0.22169 0.17705 0.36669 0.47901 0.53489 0.29488-0.17207 0.44296-0.32222 0.45068-0.51556 0.0077261-0.19333-0.12941-0.37442-0.44811-0.38409z" fill="#fff"/>
<path id="a" d="m39.818 11.674-0.028973 0.80942-0.63096-0.0232 0.026397-0.80684-1.3727-0.047689-0.074041-0.51556 1.3553-2.0223 0.81381 0.027711-0.067603 1.9888 0.50477 0.019333-0.019959 0.58644-0.50605-0.016111zm-0.5537-1.983h-0.0064384l-0.89493 1.3649c0.22277 0 0.69148 0.014822 0.85373 0.020622l0.047644-1.3856z" fill="#fff"/>
<path d="m41.933 12.623c-0.70307-0.029644-1.1544-0.52651-1.1132-1.4893 0.05537-1.3862 0.85244-2.0152 1.8298-1.9765 0.13077 0.0037732 0.26113 0.016477 0.39016 0.038022l-0.023822 0.57291c-0.13005-0.035327-0.26383-0.055014-0.39853-0.058644-0.51958-0.020622-0.88978 0.24553-1.054 0.79202-0.015452 0.043822-0.029616 0.10311-0.050219 0.1682l0.0032192 0.0051556c0.17126-0.17916 0.41914-0.27969 0.74427-0.26487 0.64384 0.026422 1.0301 0.464 1.0031 1.0421-0.032192 0.7482-0.57301 1.2019-1.3308 1.171zm0.14164-1.6878c-0.14609-0.011896-0.29047 0.037985-0.39813 0.13754-0.10766 0.099555-0.16875 0.23969-0.16844 0.38639-0.012877 0.3422 0.1616 0.60513 0.49253 0.61867 0.36827 0.015467 0.57301-0.22684 0.5846-0.56324 0.011589-0.3364-0.15645-0.56518-0.51056-0.57936z" fill="#fff"/>
<path id="Path" d="m23.629 42.533c-4.9498 0-5.4958-3.4968-5.4958-7.2378 0.0012877-4.593 1.0462-8.1 6.0752-8.1 1.0681 0 1.3115 0.13276 2.2882 0.40149l-0.30904 2.6274c-0.9767-0.28742-1.1113-0.44402-2.1356-0.44402-2.518 0-2.7357 2.4386-2.7357 5.0318 0 2.8111 0.25367 5.0976 2.9365 5.0976 0.91232 0 1.2452-0.2668 2.0229-0.62318l0.33351 2.5836c-1.1132 0.39827-1.5774 0.66313-2.9803 0.66313z" fill="#fff"/>
<path id="b" d="m34.092 42.332h0.079836c2.3139-0.0090223 2.8065-1.6253 2.8129-3.7462v-11.278h-2.8928v6.0094h-3.3595v-6.0114h-2.8928v15.026h2.8928v-6.5218h3.3595v6.5218z" fill="#fff"/>
<path d="m13.405 30.898c0-0.64831 0.15516-1.1439 0.8666-1.1439h3.2926v-2.4489h-4.2133c-2.3352 0-2.8329 1.6201-2.8361 3.7474v11.278h2.8902v-6.3194h3.5153v-2.3844h-3.5153v-2.7286z" fill="#fff"/>
</g>
</g>
</svg>
