<?xml version="1.0" encoding="UTF-8"?>
<svg width="80px" height="80px" viewBox="0 0 80 80" version="1.1" xmlns="http://www.w3.org/2000/svg" xmlns:xlink="http://www.w3.org/1999/xlink">
    <title>1 - Fundamentals/1 - Logos/Clubs/Color/Wolfsburg WOB</title>
    <g id="1---Fundamentals/1---Logos/Clubs/Color/Wolfsburg-WOB" stroke="none" stroke-width="1" fill="none" fill-rule="evenodd">
        <rect id="Area" x="0" y="0" width="80" height="80"></rect>
        <g id="WOB_Standard_Logo_RGB" transform="translate(11.000000, 11.000000)" fill-rule="nonzero">
            <path d="M55.7212444,17.1435111 C54.2744667,13.6506222 52.1832444,10.5656667 49.5055778,7.97371111 C44.1921333,2.83168889 36.9105556,0 29.0006444,0 C13.0100444,0 0,13.0338889 0,29.0541333 C0,36.7861778 3.01664444,44.0548667 8.49377778,49.5223333 C13.9709111,54.9898 21.2544222,58 29.0006444,58 C36.7462222,58 44.0290889,54.9891556 49.5062222,49.5223333 C54.9833556,44.0548667 58,36.7861778 58,29.0541333 C58,24.8014444 57.2331111,20.7942889 55.7212444,17.1435111 Z" id="Path" fill="#FFFFFF"></path>
            <g id="Group" transform="translate(0.634778, 0.671179)" fill="#41A639">
                <path d="M-1.37371596e-15,28.3120657 C0.566466667,10.693599 12.6749333,3.51126572 20.6241556,1.00953238 C24.2581778,-0.134356506 27.4404444,-0.172378729 27.4269111,0.238776827 C27.4146667,0.60031016 24.6886667,0.299354605 20.8290889,1.69199905 C14.1043111,4.12348794 4.58006667,10.1632213 4.00071111,25.6253768 C4.00071111,39.8431102 15.5343333,51.3677102 29.7636667,51.3677102 C43.9917111,51.3677102 55.5266222,39.8431102 55.5266222,25.6253768 C55.5633556,22.5861768 55.0155778,20.1817546 54.3266667,18.1034213 C53.1202667,14.4494213 51.5626444,12.7564657 52.2380222,12.7403546 C52.7020222,12.7319768 54.1062667,15.6016879 55.0826,18.2780657 C56.2200444,21.3939546 56.7439778,24.2256435 56.73008,28.3120657 C56.73008,43.9688435 44.0290889,56.6573102 28.3639333,56.6573102 C12.6987778,56.6573102 -1.37371596e-15,43.9694879 -1.37371596e-15,28.3120657 L-1.37371596e-15,28.3120657 Z" id="Path"></path>
                <path d="M25.5425556,19.3897324 C25.5425556,14.3495324 33.8088444,14.8270657 33.8088444,14.8270657 L33.8088444,32.803199 C33.8088444,34.0585768 34.6028,34.8151546 36.0328222,34.8151546 C38.3160889,34.8151546 38.1594889,32.803199 38.1594889,32.803199 C38.1594889,34.0585768 38.1517556,19.7396657 38.1517556,14.3108657 C38.1517556,9.79653238 46.3664889,9.79653238 46.3664889,9.79653238 L46.3664889,33.7228213 L46.3316889,35.2082657 C45.6305333,39.7251768 41.7181111,43.1800435 37.0935778,43.1800435 C34.0543778,43.1800435 31.3586667,41.6894435 29.667,39.3868435 C27.9753333,41.6894435 25.2770444,43.1800435 22.2417111,43.1800435 C17.6158889,43.1800435 13.7808,39.7251768 13.0796444,35.2082657 L12.9688,33.7228213 C12.9688,33.7228213 12.9597778,20.5284657 12.9597778,14.3108657 C12.9597778,9.79653238 21.1835333,9.79653238 21.1835333,9.79653238 C21.1835333,9.79653238 21.1822444,32.7890213 21.1822444,32.8077102 C21.1822444,34.0779102 22.0844667,34.8151546 23.3102,34.8151546 C24.5211111,34.8151546 25.5541556,34.0418213 25.5541556,32.8077102 C25.5528667,32.8077102 25.5425556,23.6230879 25.5425556,19.3897324 L25.5425556,19.3897324 Z" id="Path"></path>
            </g>
        </g>
    </g>
</svg>